<svg xmlns="http://www.w3.org/2000/svg" viewBox="0 0 256 256" fill-rule="evenodd"><rect width="256" height="256" fill="#a8cbe6"/><path fill="#94b06e" d="M60 26.7 L59.1 26.2 L60 27.3 L60 26.7ZM156.4 41.6 L156.1 41.2 L156.1 42.2 L156 41.6 L155.6 41.4 L156 42.4 L156.4 41.6ZM0.7 74.5 L1.3 73.2 L0.5 72.6 L0.7 74.5ZM18.3 76.8 L19.1 76.4 L18.6 75.8 L18.3 76.8ZM28.6 96.4 L27.6 97.8 L27.4 98.7 L28.1 97.6 L28.6 96.4ZM21.6 76.2 L18.5 78.8 L17 78.2 L16.4 79.3 L17 80.2 L15.8 82.6 L16.9 84.4 L15.8 84.2 L14.1 86.4 L14 84.6 L13.4 84.9 L11.9 87.2 L11.9 88.9 L10.7 87.7 L7.9 89.9 L7.5 90.8 L8.2 91.6 L6.6 90.7 L4 91.1 L3.4 92.2 L1.3 91.9 L-0.5 93.3 L-2.6 93.4 L-2.6 148.7 L1.2 150.6 L9.8 147.9 L12.4 145.6 L24.8 106.1 L25.3 99.6 L27.1 97.1 L27.5 93.7 L26.5 89.4 L27.8 89 L29.6 92 L31.2 88.6 L29.8 84.7 L28.1 75 L24.3 69.2 L21.5 71.5 L22.3 73.7 L21.6 76.2ZM70.1 118.8 L72.3 118.8 L72.8 117.4 L72 116.1 L70.1 118.8ZM61.1 122.4 L59.5 121.4 L58.2 122.6 L59 123.9 L60.6 124.5 L61.6 123.9 L61.1 122.4Z"/><path fill="#b1b471" d="M-2.6 148.7 L0.7 150.4 L2.9 150.5 L6.6 148.4 L11 147.3 L12.8 144.5 L-2.6 144.5 L-2.6 148.7Z"/><path fill="#adb36f" d="M-2.6 148.7 L-0.5 149.5 L4.6 149.5 L11.6 146.8 L14.6 139.9 L17.4 129 L-2.6 129 L-2.6 148.7Z"/><path fill="#aab26d" d="M60.7 121.7 L58.7 121.7 L58.2 122.6 L59 123.9 L60.6 124.5 L61.4 124.3 L61.7 123.1 L60.7 121.7ZM16.1 133.9 L22.2 113.7 L-2.6 113.7 L-2.6 133.9 L16.1 133.9ZM71.5 116.1 L70.5 117.5 L70.4 119.2 L72 119.1 L72.7 118.1 L71.5 116.1Z"/><path fill="#a7b06b" d="M20.7 118.6 L24.8 106.1 L25.7 98.8 L-2.6 98.8 L-2.6 118.6 L20.7 118.6ZM71.5 116.1 L70.5 117.5 L70.3 118.6 L72.7 118.1 L71.5 116.1Z"/><path fill="#9aac65" d="M25.5 103.5 L25.3 99.6 L27.5 95.1 L26.5 89.4 L27.8 89 L29.6 92 L31.2 88.6 L29.7 84 L16.4 84 L16.9 84.4 L15.8 84.2 L14.1 86.4 L13.9 84.6 L11.9 87.2 L11.9 88.9 L10.7 87.7 L7.9 89.9 L8 91.8 L6.6 90.7 L4 91.1 L3.4 92.2 L1.3 91.9 L-0.5 93.3 L-2.6 93.4 L-2.6 103.5 L25.5 103.5ZM27.4 98.7 L28.1 97.6 L28.6 96.4 L27.6 97.8 L27.4 98.7Z"/><path fill="#89a65f" d="M31.2 88.7 L28.1 75 L23.8 69.4 L21.5 71.5 L22.3 73.7 L21.6 76.2 L18.5 78.8 L17.3 78.1 L16.5 78.9 L17 80.2 L15.8 82.6 L16.9 84.4 L15.8 84.2 L14.1 86.4 L14 84.6 L13.4 84.9 L11.9 87.2 L12 88.7 L31.2 88.7ZM9.4 88.7 L11.5 88.7 L11.3 87.8 L10.7 87.7 L9.4 88.7ZM18.2 76.1 L19 76.9 L18.8 75.8 L18.2 76.1ZM1.3 73.2 L0.2 72.9 L0.7 74.5 L1 74.5 L1.3 73.2Z"/><path fill="#78a158" d="M22.3 74 L27.4 74 L24.3 69.2 L21.5 71.5 L22.3 74ZM1.3 73.2 L0.2 72.9 L0.4 74 L1.1 74 L1.3 73.2Z"/><path fill="#6d9e54" d="M156.1 41.2 L156.1 42.2 L156 41.6 L155.6 41.4 L156 42.4 L156.4 41.6 L156.1 41.2Z"/><path fill="#699c52" d="M59.1 26.2 L60 27.3 L59.6 26.2 L59.1 26.2ZM156.1 41.2 L156.1 42.2 L156 41.6 L155.6 41.4 L156 42.4 L156.4 41.6 L156.1 41.2Z"/><path fill="#659c4f" d="M59.1 26.2 L60 27.3 L59.5 26 L59.1 26.2Z"/></svg>
