<svg xmlns="http://www.w3.org/2000/svg" viewBox="0 0 256 256" fill-rule="evenodd"><rect width="256" height="256" fill="#a8cbe6"/><path fill="#94b06e" d="M49.8 -0.5 L50.9 -1.3 L48.9 -1.9 L49.2 -0.9 L49.8 -0.5ZM254.7 -2.3 L252 -0.5 L251.6 -2.6 L227.6 -2.6 L226.1 -0.6 L223.2 7.6 L218.6 8.8 L216 7.4 L213.6 7.8 L209.8 3.5 L208.6 -0.2 L204 -2.1 L201.4 -1.3 L199.7 1.8 L198.1 2.6 L196.8 2.8 L194.5 1.3 L193.2 1.4 L183.1 5 L179.1 8.3 L165.7 12.5 L164.5 11.7 L166.6 9.9 L172.8 6.8 L169.3 6.9 L163.3 9.5 L160.1 8.2 L154.4 8.7 L152 7.7 L144.4 10.5 L141.8 12.2 L136.7 13.5 L136 12.4 L136.5 10.1 L143.8 7.4 L145.8 3.7 L144 0.7 L142.7 -0.3 L140.1 -0.6 L138.3 -2.6 L117.1 -2.6 L117.3 0.2 L116.3 1.5 L110.7 5.7 L104.5 3.6 L103.3 1.8 L101.2 2.2 L100.5 1 L97.7 -0.6 L90.7 -2.6 L62.2 -2.6 L53.3 1.9 L50.4 2.3 L49.6 0.6 L47 -0.7 L43.9 1.3 L40.4 -0.2 L36.5 1.2 L31.5 1.7 L27.5 -0.2 L23.3 2.5 L17.5 0.8 L14.7 1.4 L11.8 -0.1 L5.8 1.3 L1.7 3.7 L-2.6 4.4 L-2.6 258.6 L258.6 258.6 L258.6 -2.6 L254.7 -2.3Z"/><path fill="#bac2a8" d="M-2.6 198.5 L-2.6 258.6 L258.6 258.6 L258.6 198.5 L-2.6 198.5Z"/><path fill="#b8c0a6" d="M-2.6 140.2 L-2.6 219.6 L258.6 219.6 L258.6 140.2 L-2.6 140.2Z"/><path fill="#b6bea3" d="M-2.6 90.5 L-2.6 157.8 L258.6 157.8 L258.6 90.5 L-2.6 90.5Z"/><path fill="#b4bda1" d="M-2.6 47.1 L-2.6 105.6 L258.6 105.6 L258.6 47.1 L-2.6 47.1Z"/><path fill="#a5b392" d="M258.6 8.5 L178.5 8.5 L165.7 12.5 L164.5 11.7 L169.7 8.5 L166 8.5 L163.3 9.5 L160.7 8.5 L151 8.5 L144.4 10.5 L141.8 12.2 L136.7 13.5 L136 12.4 L136.5 10.1 L140.2 8.5 L-2.6 8.5 L-2.6 60.4 L258.6 60.4 L258.6 8.5Z"/><path fill="#88a176" d="M61.9 -2.2 L53.3 1.9 L50.4 2.3 L49.6 0.6 L47 -0.7 L43.9 1.3 L40.4 -0.2 L36.5 1.2 L31.5 1.7 L27.5 -0.2 L23.3 2.5 L17.5 0.8 L14.7 1.4 L11.8 -0.1 L5.8 1.3 L3.1 3.2 L-2.6 4.4 L-2.6 20.4 L258.6 20.4 L258.6 -2.6 L254.7 -2.3 L252.6 -0.5 L252 -0.5 L251.6 -2.6 L227.6 -2.6 L226.1 -0.6 L223.2 7.6 L218.6 8.8 L216 7.4 L213.6 7.8 L209.8 3.5 L208.6 -0.2 L204 -2.1 L201.4 -1.3 L199.7 1.8 L198.1 2.6 L196.8 2.8 L194.5 1.3 L193.2 1.4 L183.1 5 L179.1 8.3 L165.7 12.5 L164.5 11.7 L166.6 9.9 L172.8 6.8 L169.3 6.9 L163.3 9.5 L160.1 8.2 L154.4 8.7 L152 7.7 L144.4 10.5 L141.8 12.2 L136.7 13.5 L136 12.4 L136.5 10.1 L143.8 7.4 L145.8 3.7 L144 0.7 L142.7 -0.3 L140.1 -0.6 L138.3 -2.6 L117.1 -2.6 L117.3 0.2 L116.3 1.5 L110.7 5.7 L104.5 3.6 L103.3 1.8 L101.2 2.2 L100.5 1 L97.7 -0.6 L90.7 -2.6 L61.9 -2.2ZM49 -1.6 L49.8 -0.5 L50.9 -1.3 L49.8 -2 L49 -1.6Z"/><path fill="#f3f6f8" d="M48.9 -1.9 L49.8 -0.5 L50.9 -1.3 L49.8 -2.1 L48.9 -1.9ZM254.7 -2.3 L252 -0.5 L251.6 -2.6 L227.6 -2.6 L226.1 -0.6 L223.2 7.6 L218.6 8.8 L216 7.4 L213.6 7.8 L209.8 3.5 L208.6 -0.2 L204 -2.1 L201.4 -1.3 L199.7 1.8 L198.1 2.6 L196.8 2.8 L194.5 1.3 L193.2 1.4 L183.1 5 L179.1 8.3 L165.7 12.5 L164.5 11.7 L166.6 9.9 L172.8 6.8 L169.3 6.9 L163.4 9.5 L160.1 8.2 L154.4 8.7 L152 7.7 L144.4 10.5 L141.8 12.2 L136.7 13.5 L136 12.4 L136.5 10.1 L143.8 7.4 L145.8 3.7 L144 0.7 L142.7 -0.3 L140.1 -0.6 L138.3 -2.6 L117.1 -2.6 L117.3 0.2 L116.3 1.5 L110.7 5.7 L104.5 3.6 L103.3 1.8 L101.2 2.2 L100.5 1 L97.7 -0.6 L90.7 -2.6 L62.2 -2.6 L53.3 1.9 L50.4 2.3 L49.6 0.6 L47 -0.7 L43.9 1.3 L40.4 -0.2 L36.5 1.2 L31.5 1.7 L27.5 -0.2 L23.3 2.5 L17.5 0.8 L14.7 1.4 L11.8 -0.1 L5.8 1.3 L1.7 3.7 L-2.6 4.4 L-2.6 258.6 L258.6 258.6 L258.6 -2.6 L254.7 -2.3Z"/></svg>
