<svg xmlns="http://www.w3.org/2000/svg" viewBox="0 0 256 256" fill-rule="evenodd"><rect width="256" height="256" fill="#a8cbe6"/><path fill="#94b06e" d="M89.3 23.8 L91.1 22.9 L94.7 22.8 L97.2 18.7 L95.9 18.2 L91.8 19.5 L89.6 22 L89.3 23.8ZM28.7 32.1 L27.5 37.6 L28.9 39.4 L29.8 38.7 L32.8 39 L38.5 36.2 L46.9 34.1 L46.5 29.8 L42.5 23.2 L39.1 20.6 L32.4 22 L30.1 23.3 L28.4 26.7 L28.7 32.1ZM81.2 46.2 L81.9 44.5 L81.3 42.1 L82.4 39.6 L84.9 38.4 L80.8 36.1 L78.6 35.8 L76.2 36.6 L75.1 40 L76 41.8 L81.2 46.2ZM19.3 254.1 L17.2 248.1 L18 247.3 L25.5 247.3 L27 246.5 L31.7 251.1 L33.5 250.7 L35 249.1 L36.3 249.3 L33.5 251.6 L32.8 253.4 L36.7 255.8 L39.1 255 L43.7 251 L46 251.1 L46.1 248.9 L44 243.1 L47.4 243.7 L49.5 241.7 L58 224.7 L62 221.4 L63.3 219.3 L64.5 213 L64.2 206.7 L69.3 197.4 L68.8 194.6 L60.4 187 L57.8 182.2 L57.2 176.3 L58.2 165.6 L58 155.5 L56.5 139.5 L59.2 133.3 L59.2 115.9 L57.8 109.3 L52.1 103.8 L49.7 98.4 L50.2 95.2 L52.7 93 L54.4 89.8 L57.7 78.3 L59.8 66 L60.4 52.8 L56.3 49 L52.3 47.5 L50.4 47.9 L45.5 44.2 L25.5 45.3 L24.4 44.9 L25.1 42.6 L24 41.6 L21.5 42.6 L17.5 53.6 L12.6 78.3 L8.8 90.3 L5.2 95.2 L-2.6 102.3 L-2.6 160.1 L5.8 165.8 L7 173.6 L11.9 182.2 L14.4 183.8 L16.2 182.6 L18.7 182.7 L15.1 194.8 L11.4 201.6 L9.9 202.6 L7.5 199.9 L2.6 196.5 L1.6 194.4 L-2.6 190.3 L-2.6 258.6 L27.4 258.6 L25 256.8 L21.8 256.1 L19.3 254.1ZM-2.6 166.6 L-1.9 162.8 L-2.6 162.7 L-2.6 166.6ZM29.7 254.4 L29.3 250.8 L22.8 249.2 L22.4 250.2 L24.5 254.5 L26.7 256.7 L29.1 255.9 L29.7 254.4ZM170.2 -2.6 L171.9 -1.5 L172.8 -2.6 L170.2 -2.6ZM181 -0.8 L183 -2.6 L176.7 -2.6 L181 -0.8ZM105.3 23.3 L99.6 18.9 L98.3 19 L97.7 20.2 L99.4 22.1 L105.3 23.3ZM134.9 39.4 L132.7 37.2 L126.9 45.1 L126.7 46.7 L127.3 48.5 L129.5 50.5 L135.7 52 L136.6 51.6 L137 49.8 L137 44 L134.9 39.4ZM117 67.3 L123.6 60.7 L123.5 59.9 L122.6 58 L116.6 55.1 L114.7 55.1 L112.4 57.6 L109.8 62.4 L107 65.1 L106.6 67 L107 67.7 L109.7 68.3 L117 67.3ZM226.1 10.8 L223.2 16.5 L214.8 18.4 L211.5 20.4 L209.8 22.9 L209.5 25.5 L210.2 27.2 L218.6 36 L218.2 36.7 L211.6 30.2 L208.4 28 L208.1 23.6 L208.5 21.4 L211.6 18 L214.7 16.3 L222.2 8 L220.6 5.5 L217.2 5.2 L206.1 8.1 L204.2 11.7 L201.4 12.2 L200 12.3 L196.1 10.5 L192.5 12.2 L182.6 14.4 L162.9 14.7 L148.9 18.4 L149 22.2 L146.8 26.8 L147.1 31.8 L148 37.5 L150.8 39.9 L151.8 42.9 L149.7 52 L151.6 60.5 L154.7 64.2 L156.8 65.4 L162.6 66.6 L166 68.9 L167.1 69.9 L168.6 76.1 L172.3 81.5 L178.6 83.3 L180.2 85 L182.4 90.3 L182.4 96.4 L178.1 111 L182.9 122.7 L184.7 130.3 L183.9 134.6 L182 137.1 L177.2 139.4 L177.9 143.4 L177.3 145.6 L174.7 145.2 L172.7 141.4 L175.4 135 L176.7 129.1 L176.9 121 L176.5 118.2 L174.9 116.2 L173.4 116.6 L171.7 118.4 L170.1 125.3 L167.9 130.4 L167.5 135.4 L166.8 128.5 L168.8 121.3 L167.7 114.7 L168.7 105.4 L176.1 98.6 L179 90.8 L177.6 88.9 L173.6 87.4 L165.9 89.4 L161.1 89.1 L152 79.8 L150.9 75.4 L147.6 73.1 L141.7 70.5 L135.6 64.6 L125 64 L122 64.7 L119.1 66.5 L116.4 70.2 L113.5 71.6 L113.1 72.9 L112.8 74.7 L113.7 76.1 L117 74.5 L119.7 75.3 L121.1 77.1 L122.1 80.5 L121.6 82.1 L116.9 84.7 L114.4 84.5 L108.8 78.6 L106.6 77.5 L101.5 78.5 L97.1 82 L100.3 93.5 L101.6 95 L113.6 103.6 L116.1 104 L118.4 103.2 L121.9 105.2 L125.1 113.7 L127.7 115.4 L131.8 114.5 L131 116.3 L125.4 117.7 L123.1 117 L120.2 115.1 L114.8 108.7 L108 108.2 L107.3 110.1 L105.2 107.5 L98 106.9 L93.7 105.2 L89.1 102.5 L88.5 99.4 L90.7 95.7 L91.1 91.3 L88.1 85.6 L88.4 80.2 L89.8 79.3 L91.6 72.4 L93.8 67.7 L92.1 61.7 L92.2 57 L89.5 48.7 L87.1 46.6 L84.7 46.5 L82.9 48.2 L86 58.2 L86.4 69 L85.2 73.4 L79.5 78.8 L73.3 81.9 L70.2 84.4 L63.6 98.9 L64.3 101 L69.1 107 L77.5 126.6 L77.9 129.2 L72 142.8 L69.2 155.2 L69 158.4 L72.7 167.8 L71.4 174.9 L72.1 176.6 L73.7 177.5 L78.1 176.6 L83.2 178.3 L85.9 177.5 L90.1 173.6 L96.7 173.7 L104 177.4 L113.4 184.2 L115.5 184.3 L119.4 204.3 L115.7 206.4 L114.2 212 L114.8 219.7 L125.8 223.1 L129 223.3 L130 224.6 L116.9 225.2 L110.1 218.9 L110.9 214 L110.8 197.8 L109.4 193.9 L105.1 188.2 L101.9 181.9 L97.9 182 L86.8 185.6 L80.6 189 L79.4 191.9 L78.4 199.3 L82.4 210 L82.7 219.3 L74.8 229.8 L71.6 242.1 L66.5 247.6 L55.9 254.6 L55.2 258.6 L258.6 258.6 L258.6 -2.6 L220.5 -2.6 L224.3 5.8 L228.4 8.6 L226.1 10.8Z"/><path fill="#88a176" d="M25 256.8 L21.8 256.1 L19.3 254.1 L17.2 248.1 L18 247.3 L25.5 247.3 L27 246.5 L31.7 251.1 L33.5 250.7 L35 249.1 L36.3 249.3 L33.5 251.6 L32.8 253.4 L36.7 255.8 L39.1 255 L43.7 251 L46 251.1 L46.1 248.9 L44 243.1 L47.4 243.7 L49.5 241.7 L58 224.7 L62 221.4 L63.3 219.3 L64.4 215.3 L-2.6 215.3 L-2.6 258.6 L27.4 258.6 L25 256.8ZM114.1 215.3 L114.8 219.7 L125.8 223.1 L129 223.3 L130 224.6 L116.9 225.2 L110.1 218.9 L110.7 215.3 L82.9 215.3 L82.7 219.3 L81.6 221.4 L74.8 229.8 L71.6 242.1 L66.5 247.6 L55.9 254.6 L55.2 258.6 L258.6 258.6 L258.6 215.3 L114.1 215.3ZM29.7 254.4 L29.1 253.5 L29.3 250.8 L22.8 249.2 L22.4 250.2 L24.5 254.5 L26.7 256.7 L28.7 256.3 L29.7 254.4Z"/><path fill="#a5b392" d="M-2.6 160.1 L5.8 165.8 L7 173.6 L11.9 182.2 L14.4 183.8 L16.2 182.6 L18.7 182.7 L15.1 194.8 L11.4 201.6 L9.9 202.6 L7.5 199.9 L2.6 196.5 L1.6 194.4 L-2.6 190.3 L-2.6 239 L50.8 239 L58 224.7 L62 221.4 L63.3 219.3 L64.5 213 L64.2 206.7 L69.3 197.4 L68.8 194.6 L60.4 187 L57.8 182.2 L57.2 176.3 L58.2 165.6 L58 155.5 L56.5 139.5 L58.6 135.2 L-2.6 135.2 L-2.6 160.1ZM183.4 135.2 L182 137.1 L177.2 139.4 L177.6 145 L175.9 145.7 L174.7 145.2 L172.7 141.4 L175.3 135.2 L75.5 135.2 L72 142.8 L69.2 155.2 L69 158.4 L72.7 167.8 L71.4 174.9 L72.1 176.6 L73.7 177.5 L78.1 176.6 L83.2 178.3 L85.9 177.5 L90.1 173.6 L96.7 173.7 L104 177.4 L113.4 184.2 L115.5 184.3 L119.4 204.3 L115.7 206.4 L114.2 212 L114.8 219.7 L125.8 223.1 L129 223.3 L130 224.6 L116.9 225.2 L110.1 218.9 L110.9 214 L110.8 197.8 L109.4 193.9 L105.1 188.2 L101.9 181.9 L97.9 182 L86.8 185.6 L80.6 189 L79.4 191.9 L78.4 199.3 L82.4 210 L82.7 219.3 L74.8 229.8 L72.7 239 L258.6 239 L258.6 135.2 L183.4 135.2ZM-2.6 166.6 L-1.9 162.8 L-2.6 162.7 L-2.6 166.6Z"/><path fill="#b4bda1" d="M-2.6 102.3 L-2.6 160.1 L0.5 161.9 L58.1 161.9 L56.5 139.5 L59.2 133.3 L59.2 115.9 L57.8 109.3 L52.1 103.8 L49.7 98.4 L50.2 95.2 L52.7 93 L54.4 89.8 L58.3 75.8 L59.8 66 L60.4 52.8 L56.3 49 L52.3 47.5 L50.4 47.9 L46.9 44.8 L30.2 44.8 L27.2 45.4 L20.7 44.8 L17.5 53.6 L12.6 78.3 L8.8 90.3 L5.2 95.2 L-2.6 102.3ZM151.4 44.8 L149.7 52 L151.6 60.5 L154.7 64.2 L156.8 65.4 L162.6 66.6 L166 68.9 L167.1 69.9 L168.6 76.1 L172.3 81.5 L178.6 83.3 L180.2 85 L182.4 90.3 L182.4 96.4 L178.1 111 L182.9 122.7 L184.7 130.3 L183.9 134.6 L182 137.1 L177.2 139.4 L177.9 143.4 L177.3 145.6 L174.7 145.2 L172.7 141.4 L175.4 135 L176.7 129.1 L176.9 121 L176.5 118.2 L174.9 116.2 L173.4 116.6 L171.7 118.4 L170.1 125.3 L167.9 130.4 L167.5 135.4 L166.8 128.5 L168.8 121.3 L167.7 114.7 L168.7 105.4 L176.1 98.6 L179 90.8 L177.6 88.9 L173.6 87.4 L165.9 89.4 L161.1 89.1 L152 79.8 L150.9 75.4 L147.6 73.1 L141.7 70.5 L135.6 64.6 L125 64 L122 64.7 L119.1 66.5 L116.4 70.2 L113.5 71.6 L113.1 72.9 L112.8 74.7 L113.7 76.1 L117 74.5 L119.7 75.3 L121.1 77.1 L122.1 80.5 L121.6 82.1 L116.9 84.7 L114.4 84.5 L108.8 78.6 L106.6 77.5 L101.5 78.5 L97.1 82 L100.3 93.5 L101.6 95 L113.6 103.6 L116.1 104 L118.4 103.2 L121.9 105.2 L125.1 113.7 L127.7 115.4 L131.8 114.5 L131 116.3 L125.4 117.7 L123.1 117 L120.2 115.1 L114.8 108.7 L108 108.2 L107.3 110.1 L105.2 107.5 L98 106.9 L93.7 105.2 L89.1 102.5 L88.5 99.4 L90.7 95.7 L91.1 91.3 L88.1 85.6 L88.4 80.2 L89.8 79.3 L91.6 72.4 L93.8 67.7 L92.1 61.7 L92.2 57 L89.5 48.7 L87.1 46.6 L84.7 46.5 L82.9 48.2 L86 58.2 L86.4 69 L85.2 73.4 L79.5 78.8 L73.3 81.9 L70.2 84.4 L63.6 98.9 L64.3 101 L69.1 107 L77.5 126.6 L77.9 129.2 L72 142.8 L69.2 155.2 L69 158.4 L70.4 161.9 L258.6 161.9 L258.6 44.8 L151.4 44.8ZM123.6 60.7 L122.6 58 L116.6 55.1 L114.7 55.1 L112.4 57.6 L109.8 62.4 L107 65.1 L106.6 67 L107 67.7 L109.7 68.3 L117 67.3 L123.6 60.7ZM136.6 51.6 L137 44.8 L126.9 45.1 L127.3 48.5 L129.5 50.5 L135.7 52 L136.6 51.6ZM81.8 44.8 L79.4 44.8 L81.2 46.2 L81.8 44.8Z"/><path fill="#b6bea3" d="M13.2 75 L58.4 75 L59.8 66 L60.4 52.8 L56.3 49 L52.3 47.5 L50.4 47.9 L45.5 44.2 L25.5 45.3 L24.4 44.9 L25 41.8 L21.5 42.6 L17.5 53.6 L13.2 75ZM83.8 75 L90.9 75 L93.8 67.7 L92.1 61.7 L92.2 57 L89.5 48.7 L87.1 46.6 L84.7 46.5 L82.9 48.2 L85.4 55.5 L86.4 63.1 L85.9 71.4 L83.8 75ZM118.7 75 L150.1 75 L147.6 73.1 L141.7 70.5 L135.6 64.6 L125 64 L122 64.7 L119.1 66.5 L116.4 70.2 L113.5 71.6 L113 75 L117 74.5 L118.7 75ZM224.3 5.8 L228.4 8.6 L226.1 10.8 L223.2 16.5 L214.8 18.4 L211.5 20.4 L209.8 22.9 L209.5 25.5 L210.2 27.2 L218.6 36 L218.2 36.7 L211.6 30.2 L208.4 28 L208.1 23.6 L208.5 21.4 L211.6 18 L214.7 16.3 L222.2 8 L220.6 5.5 L217.2 5.2 L206.1 8.1 L204.2 11.7 L201.4 12.2 L200 12.3 L196.1 10.5 L192.5 12.2 L182.6 14.4 L162.9 14.7 L148.9 18.4 L149 22.2 L146.8 26.8 L147.1 31.8 L148 37.5 L150.8 39.9 L151.8 42.9 L149.7 52 L151.6 60.5 L154.7 64.2 L156.8 65.4 L162.6 66.6 L166 68.9 L167.1 69.9 L168.2 75 L258.6 75 L258.6 -2.6 L220.5 -2.6 L224.3 5.8ZM123.6 60.7 L122.6 58 L116.6 55.1 L114.7 55.1 L112.4 57.6 L109.8 62.4 L107 65.1 L106.6 67 L107 67.7 L109.7 68.3 L117 67.3 L123.6 60.7ZM136.6 51.6 L137 44 L134.9 39.4 L132.7 37.2 L126.9 45.1 L126.7 46.7 L127.3 48.5 L129.5 50.5 L135.7 52 L136.6 51.6ZM84.9 38.4 L82.2 36.7 L78.6 35.8 L76.2 36.6 L75.1 40 L76 41.8 L81.2 46.2 L81.9 44.5 L81.3 42.1 L82.4 39.6 L84.9 38.4ZM32.4 22 L30.1 23.3 L28.4 26.7 L28.7 32.1 L27.5 37.6 L28.9 39.4 L29.8 38.7 L32.8 39 L38.5 36.2 L46.9 34.1 L46.5 29.8 L41.4 22 L39.1 20.6 L32.4 22ZM98.3 19 L97.7 20.2 L99.4 22.1 L105.3 23.3 L99.6 18.9 L98.3 19ZM89.3 23.8 L91.1 22.9 L94.7 22.8 L97.2 18.7 L95.9 18.2 L91.8 19.5 L89.6 22 L89.3 23.8ZM176.7 -2.6 L181 -0.8 L183 -2.6 L176.7 -2.6ZM170.2 -2.6 L171.9 -1.5 L172.8 -2.6 L170.2 -2.6Z"/><path fill="#a8cbe6" d="M47.2 215.4 L48.7 213.7 L47.9 211.1 L44 213.8 L43.2 215.6 L43.9 216.2 L47.2 215.4ZM44.2 211.5 L40.9 209.1 L39.4 209.2 L39 210.3 L39.5 211.9 L40.6 212.4 L43.7 212.6 L44.2 211.5ZM258.6 200.9 L248.2 200.3 L248.2 202 L253.4 202.9 L253.8 204.2 L255.3 204.9 L258.6 204.2 L258.6 200.9ZM258.5 187.9 L256 186.3 L253 185.7 L251.2 186 L250.8 186.9 L256.6 190.6 L258.6 190.6 L258.5 187.9ZM258.3 161 L254.9 161.8 L250.8 165.3 L242.9 169.3 L242.6 170.3 L244.1 170.9 L250 169.1 L251.2 166.9 L253.3 165.5 L257.1 163.9 L258.6 164.1 L258.3 161ZM230.2 164.7 L232.5 165.8 L235.1 165.2 L233.4 162.2 L232.4 156.7 L229.4 151.3 L229.3 150 L232.5 147.8 L232.9 146.7 L232.4 145.7 L231.1 145.4 L226.5 148.6 L225.8 152.4 L228.8 155 L230.2 164.7ZM40.5 149.1 L39.2 146.9 L39.1 144 L38 144.1 L37 147.6 L38.1 149.7 L40.1 150.2 L40.5 149.1ZM34.3 146.8 L34 145.6 L30.4 144.1 L29.9 146.2 L31.1 148.3 L32.7 148.2 L34.3 146.8ZM34.9 144.6 L37.5 143.1 L37.2 141.4 L32.4 142 L32.7 143.6 L34.9 144.6Z"/><path fill="none" stroke="#a08a7c" stroke-width="0.6" d="M125 64 L127.4 72.1 L135.6 77.1 L138.8 76.6 L144.7 80.8 L146.1 82.8 L142.6 84.9 L143.6 90.6 L140.7 93.2 L135.2 92.8 L134.6 97.6 L132.5 99.7 L133.6 103.4 L137.3 104.8 L141.7 109.9 L146.8 111.4 L148.5 113 L148.5 118.1 L150 121.4 L149.1 124.6 L150.8 127.2 L148.7 133.2 L144.2 134.2 L143.3 136.8 L138 141.3 L136.6 144.8 L133.2 146.9 L132.8 149.4 L129.9 153.3 L132.2 157.6 L137.5 162.2 L138.2 165.4 L140.6 169.8 L145.2 169.8 L150.6 171.3 L153.2 174.5 L157.3 172.1 L160.5 172 L160.7 168.1 L162.5 167.4 L164.2 170 L162.4 173.7 L163.8 175.4 L167.9 176.2 L170.6 177.7 L168.8 179.2 L170.4 181.3 L171.2 186.2 L176.5 191.1 L174.8 192.9 L171.1 193.4 L173.1 199.5 L172.7 203.6 L171.2 206.8 L169.5 206.8 L169 213.9 L165.7 213.8 L161.9 215 L163.6 218.3 L166.1 220.6 L166.2 224 L169.4 226.6 L167.9 230 L169 232.4 L166.3 234.8 L178.2 247.2 L179.7 251.7 L177.2 254.1 L177.4 257.5 L178.4 258.6"/></svg>
