<svg xmlns="http://www.w3.org/2000/svg" viewBox="0 0 256 256" fill-rule="evenodd"><rect width="256" height="256" fill="#a8cbe6"/><path fill="#94b06e" d="M-2.6 -2.6 L-2.6 258.6 L258.6 258.6 L258.6 -2.6 L-2.6 -2.6Z"/><path fill="#94b06e" d="M-2.6 226.6 L-2.6 258.6 L258.6 258.6 L258.6 226.6 L-2.6 226.6Z"/><path fill="#92af6d" d="M258.6 239 L258.6 187 L-2.6 187 L-2.6 239 L258.6 239Z"/><path fill="#90ae6c" d="M258.6 199.8 L258.6 145.5 L-2.6 145.5 L-2.6 199.8 L258.6 199.8Z"/><path fill="#8dac6b" d="M258.6 159 L258.6 102 L-2.6 102 L-2.6 159 L258.6 159Z"/><path fill="#86a66a" d="M258.6 116.2 L258.6 56.2 L-2.6 56.2 L-2.6 116.2 L258.6 116.2Z"/><path fill="#7ea068" d="M258.6 71.1 L258.6 7.6 L-2.6 7.6 L-2.6 71.1 L258.6 71.1Z"/><path fill="#789a66" d="M258.6 23.5 L258.6 -2.6 L-2.6 -2.6 L-2.6 23.5 L258.6 23.5Z"/><path fill="#e2cf9b" d="M217.7 183.7 L210.8 186.4 L162.5 188.1 L139.7 198.3 L110.3 202.2 L70.7 195.7 L62.6 199.1 L60.8 210.6 L60.7 223.2 L52.3 237.6 L50.9 243.1 L51 249.1 L53.4 256.7 L54.5 258.6 L193.4 258.6 L194.4 252.6 L195.3 251.2 L198.2 250.5 L235.5 257.8 L240.5 256.8 L245.2 254 L256 242.6 L258.6 240.9 L258.6 153.4 L217.7 183.7ZM204.4 257 L201.8 257.4 L200.6 258.6 L210.3 258.6 L204.4 257Z"/><path fill="#a88f73" d="M1.1 117.4 L4 122.3 L11 123.9 L11.3 111.1 L18.1 107.4 L21.6 100.9 L28.7 96.9 L46.5 95.9 L55.8 98.2 L61 101.4 L64.4 106.9 L67.4 109.1 L70.4 108.7 L72.3 107.7 L75.6 103.6 L75.7 101 L73.9 96.3 L70.3 91.3 L66 87.5 L48.3 80.4 L26.7 82 L20.5 85 L15.3 86 L11.1 88.9 L6.4 94.4 L6.2 90.3 L9.7 81.3 L10.8 84.2 L12.1 85.1 L16 85 L23.8 82 L52.8 79.8 L60.4 82.4 L62.4 82.1 L65.4 80.5 L68.4 72.4 L67.6 66.2 L75.2 72.8 L95.4 78.2 L125 78.4 L132.9 75.1 L135.9 74.9 L139.8 75.6 L141.8 75.1 L143.9 77.1 L146.9 76.5 L150.2 77.4 L151.3 75.9 L155.5 75.5 L156 71.1 L152.8 66.3 L111.7 34.4 L105.6 26.3 L101.9 22.8 L76.5 6 L73.5 5 L67.5 5.4 L58.3 11.5 L52.6 11.2 L48.4 9.7 L35.7 -1.2 L33 -2.2 L30.3 -2.1 L25.6 1.2 L20.1 9 L18.5 13.8 L19 19.2 L20.8 23.3 L28.1 31.5 L32.4 38.3 L43.7 50.9 L45.5 51.8 L13.6 55.5 L12 58.6 L12.2 50.9 L13.5 43.6 L12.1 36.8 L10.7 34 L8.8 32.4 L4.6 31.8 L2.5 32.9 L-0.4 38.9 L-2.6 40.9 L-2.6 115.5 L-0.9 115.8 L1.1 117.4ZM11.4 73 L10.7 75.5 L10.9 65.7 L11 64.9 L11.4 73ZM239.5 105.3 L240.6 108.9 L241.9 110.2 L258.6 114.4 L258.6 69.5 L249.2 83.9 L244.3 97.1 L239.5 105.3ZM122.4 142.9 L118.9 140.2 L100.8 131.7 L85.9 130.3 L80.9 131 L70.6 137.5 L66.5 142.9 L66.1 149.4 L67.5 152.3 L71.7 155.5 L73.2 160.5 L75.8 162.9 L97.3 168.9 L106.5 174.9 L122 181.5 L125.5 182 L129.1 181.5 L143.2 184 L148.4 182.3 L153.3 178.8 L156.1 174.8 L157 169.4 L156 164.8 L153.4 160.8 L143.5 152.1 L122.4 142.9ZM102.1 182.4 L80.2 174.2 L63.9 163.5 L55.9 162.1 L33.7 147.7 L27.8 145.7 L23.3 142.1 L10.9 125.2 L0.5 122 L-2.6 119.6 L-2.6 177.6 L0.9 186.6 L7.5 195.4 L12.7 198.6 L21.9 199.4 L32.6 202.9 L57 204 L71.3 219.3 L74.8 221.1 L78.2 220.9 L81.2 219.4 L84 216.8 L88.4 210.1 L90.7 208.1 L99.8 209.6 L117.5 208.8 L120.2 207.7 L122.2 205.7 L122.8 202.4 L120.2 197 L112.5 192 L102.1 182.4ZM6.5 225.3 L8.2 223.6 L10.9 222.6 L31 222.9 L35.7 225.2 L42.1 231.3 L45 232.1 L50.9 231.7 L55.7 229.2 L57.5 227 L59.4 220.5 L58.9 214.2 L57.8 212 L56.1 211 L24 206.6 L3.4 211.3 L-2.6 211.2 L-2.6 230.3 L6 227.9 L6.5 225.3ZM241.3 256.9 L247 252.3 L245.3 245.4 L240.1 241.1 L201.2 234.3 L188.5 235.5 L182.3 238.4 L178.6 247.5 L183.9 252.3 L188.3 255 L193.5 252.9 L195.5 250.2 L236.8 258.2 L241.3 256.9ZM250.2 258.6 L253.7 258.6 L252.7 255.5 L251.9 256.2 L250.2 258.6Z"/><path fill="#a8cbe6" d="M22.5 143.7 L23.7 147 L25 147.8 L26.8 144.4 L31.7 140.8 L31.9 139.5 L30 138.2 L30.1 140.5 L28.2 141.5 L27.4 141.2 L27.3 139.8 L28.3 138 L26 137.8 L25.6 141.6 L22.5 143.7ZM32.6 122.7 L38.7 126.8 L43.2 124.4 L41.6 122.9 L39.5 123.1 L37.1 121.6 L32.6 121.3 L32.6 122.7ZM12.7 106 L10.7 105.3 L10.1 106.7 L10.9 107.7 L12.3 107.4 L12.7 106ZM34 98.3 L32.9 97.4 L25.4 101.8 L27.1 106.6 L29.6 109 L33.1 108.1 L35.2 105.6 L38.2 104.1 L35 101.5 L34 98.3ZM118.8 99 L119.5 94.7 L121.6 91.6 L122.7 84 L120.1 80.1 L118.1 82.8 L118.4 84.1 L117 86.7 L116 100.4 L118.8 99ZM224.9 13.9 L226 4.1 L227 2.1 L225.8 0.4 L223.8 -0 L222.7 0.1 L218.4 4.9 L218.1 11.7 L216.8 15 L215.2 16.5 L213.7 22 L207.3 35.6 L200.6 42.6 L199.5 45.9 L191.7 52.3 L190.8 53.9 L192 53.7 L192.1 54.8 L188.2 59.8 L182.7 63.5 L177.1 71 L172.5 74.7 L168.5 75.4 L165.4 77 L156.9 77.9 L156.1 78.3 L156.4 79.1 L161.1 81.5 L166.7 82.5 L179.7 78.5 L184.2 73.8 L185.6 67 L187.7 65.9 L191.2 66.9 L192.7 64.2 L194.5 62.9 L204.2 58.4 L208.1 54.5 L208.2 52.2 L209.3 51.2 L212.3 48.6 L213.5 48.9 L216 46.8 L215.8 44.6 L214.4 43.1 L210.9 44.5 L214.3 38.9 L216.6 37.9 L216.5 42.1 L218.4 41.7 L218.6 38.5 L222.5 32.2 L221.8 30.1 L222.1 24.3 L224.9 13.9ZM193 52.8 L200.1 48.9 L202.5 46.8 L202.1 49.2 L198.4 52.3 L193 53.8 L193 52.8ZM147.6 -2.6 L149.5 1.9 L151 9.5 L151.1 12.4 L148.7 17.1 L148.3 19.9 L150 22.9 L150.4 25.7 L149.1 27.1 L147.8 32.1 L150.3 38.9 L149.2 39.5 L147.1 38.6 L146.4 39.2 L151 41.4 L151.8 43.4 L152.2 52.2 L152.9 50.1 L152.9 44.4 L153.5 43.6 L154.8 43.8 L156.2 45.1 L156.3 43.7 L156.2 42.8 L152.9 41.3 L149.1 32.3 L150.9 28.5 L152.4 31.8 L153.2 32 L149.7 19.5 L152.1 11.2 L150.5 4.4 L150.7 1.3 L148.8 -2.6 L147.6 -2.6ZM130.5 -2.6 L133.6 -0.6 L134.3 2.5 L136.2 4.3 L136.3 5.1 L133.8 6.2 L134.1 7.3 L139.9 5 L139.5 7.4 L140.3 10.2 L137.9 14.5 L138.6 14.2 L141.4 9.9 L140.4 9.2 L140.1 7.6 L140.9 4.7 L140.3 3.8 L137.7 3 L137.1 2.3 L137.5 1.2 L135.5 -0.1 L136.3 -2.6 L130.5 -2.6Z"/><path fill="none" stroke="#a08a7c" stroke-width="0.6" d="M5.4 69.6 L8 64.5 L15.9 56.8 L15.4 52.8 L18.9 51.3 L20.9 48.8 L21 47.6 L19.8 45.8 L16.7 44.5 L15.1 38.7 L16.7 35.8 L16.7 34.1 L13.8 28.6 L13.2 25.7 L9.7 22.9 L10.4 19.7 L9.6 18.7 L8.1 18.9 L7.8 17.4 L5.2 18.1 L5 15.2 L1.5 13.5 L-2.6 14.7M79.3 -2.6 L76.9 0.6 L78.7 9 L76.5 10.3 L76.1 13.9 L74.9 15.2 L76.4 17 L74.5 23.8 L73.9 25.2 L72.3 24.2 L68.7 24.3 L67.1 27.6 L65 27.6 L64.3 29.7 L64.6 30.6 L69.2 33.9 L69.7 35.7 L74 41.2 L76 42.1M101.7 71 L101.6 69.4 L100.2 69.3 L100.1 67.9 L98.4 67.2 L98.2 65.3 L100.2 63.4 L100.2 61.6 L101.7 60.4 L101.7 58.1 L100.8 57.2 L101.6 55.8 L104.9 56.8 L105.2 55.2M105.2 55.2 L106.7 52.1 L110.3 51.8 L112.4 48.6 L114.7 48.6 L116.7 47.2 L118.3 49.8 L117.9 51.7 L120.7 55.3 L123.5 57.9 L130.1 61.2 L135.5 67.1 L136.1 68.8 L137.1 69 L138.7 67.9 L142.7 68.8 L145.4 73.3 L150.4 76.9 L150 79.9 L151.7 83.4 L154.5 82.5 L157.2 84.2 L157.2 88.9 L161.7 86.2 L164.9 85.6 L166.2 86.4 L166.9 84 L166.7 79.9 L172.1 77.9 L175.9 75.5 L179.2 72.4 L184.3 64.8 L205.5 50.4 L209.6 39.3 L216.3 26.9 L216.4 25.5 L212.4 24.5 L212.1 23.4 L212.9 19.8 L212.7 14.3 L213.7 12.2 L213.6 10.8 L212.2 9.3 L211.9 6.5 L215.1 -2.6M5.4 69.6 L8.5 71.8 L9.6 74.6 L12.5 74 L13.4 75 L17.6 74.8 L21.6 75.7 L22.6 76.8 L28.5 77 L30.4 75.9 L32.4 76.1 L38.2 70.6 L41.8 68.8 L42.9 64.7 L45.4 62.1 L47.1 57.5 L48.8 56.2 L51.3 56 L52.4 50.9 L53.4 50 L52.3 48.3 L53.9 47 L56.6 46.6 L57.4 47.1 L59.9 45.6 L61.2 47.2 L65.6 44.4 L68.8 45.7 L70.4 44.5 L71 42.6 L73 43.9 L75.6 43.9 L76 42.1M76 42.1 L76.7 40.7 L78.2 40.4 L81.2 42.6 L83.4 42.9 L84.7 45.5 L87.6 47.1 L90.7 47.6 L91.4 49.5 L94.2 50 L94.5 52.3 L98 52.2 L99 51.3 L103 52.3 L102.3 53.6 L105.2 55.2M258.6 66.8 L256.5 66.5 L254.9 69.1 L252.4 67.6 L251 67.8 L245.6 74.4 L240.4 76.3 L235.3 82.1 L228.1 80 L223.3 83.1 L219 84.6 L216.7 82.2 L215.5 83.2 L213.4 83.1 L212.2 82.1 L209.2 86.9 L211.1 88.4 L210.3 90.2 L208.8 90.2 L207.6 94.1 L205.6 95.7 L206.9 97.4 L210.2 98.6 L211.1 100.9 L207.2 101.8 L206.3 103.5 L204.7 103.2 L204 105.3 L202.2 106.5 L201.9 109.7M-2.6 80 L-0.7 77.6 L1.2 77.3 L0.3 73.3 L1.4 72.2 L1.4 70.6 L5.4 69.6M72.4 229.4 L69.3 231.5 L68.7 240.6 L66.7 242.7 L57.6 243.7 L52.1 246.8 L42.7 258.6M-2.6 99 L-1.5 100.5 L-2.6 101.7M115.1 258.6 L113.9 257.3 L110 257.2 L103.3 258.6M94.6 258.6 L94.4 257 L90.5 253.9 L87 248.8 L89.3 246.3 L81.8 228.4"/><path fill="none" stroke="#6e5a4e" stroke-width="1" d="M258.6 195.4 L255 192.5 L249.2 192.4 L247.5 193.9 L243.5 203.6 L245.8 207.7 L248.5 210.4 L249.6 213.9 L247.7 214.7 L245.2 217.3 L239 219.7 L232.1 228.6 L220 233.8 L206.7 233.6 L190.8 236.1 L172.9 244.5 L170.5 246.7 L165 245.7 L165 242.4 L156 244.3 L148.7 240.4 L138.3 238.1 L136.2 237.2 L132.7 232.8 L130.8 232.2 L113.6 230.1 L107.7 231.8 L82 228.3 L72.7 229.4 L71.7 226.2 L66.7 220.8 L62.9 210.1 L60.6 208.8 L60.9 205 L57.5 205.3 L53.6 203.8 L47.8 199.1 L45 198.6 L41.6 195 L40 194.3 L31.7 192.9 L27.6 193.3 L18 192.2 L11.9 189.9 L10 190.3 L7.5 184.9 L8.1 181.6 L11.4 176.6 L10.4 172.8 L11.8 168.5 L11.2 164.8 L9.9 161.4 L8.1 160.6 L5.6 155.9 L3.6 149.3 L1.2 148.1 L0.3 145.9 L-2.6 146.7M-2.6 110 L-0.3 109.4 L0.6 107.5 L7.5 105.2 L11.6 101.8 L16.1 100.8 L19.4 97.3 L24.9 96.6 L26.8 93.7 L29.9 96.9 L31.2 96.5 L31.6 95.2 L33.5 95.2 L35.3 98.4 L48.4 99.2 L49.5 105.2 L52.5 108.7 L56.1 108.4 L58.2 110.3 L62.8 110.7 L65.9 108.9 L67.5 109.8 L69 109.2 L71.9 110.9 L79.5 111.2 L82 113.9 L83.7 113.7 L86.4 110.7 L89.4 110.1 L91.1 108.9 L93.9 103.8 L94.2 99.6 L91.4 97.6 L89.2 90.3 L91.5 83.1 L93.5 82.1 L95 78.2 L98.3 76.6 L101.2 70.8 L107 74.4 L110.6 75.3 L112.9 77.5 L119.1 78 L129.5 83 L131.7 82.8 L137.8 84.8 L139 94.3 L140.1 96.3 L139.8 98.7 L144.3 102.3 L149.8 104 L151.4 105.6 L155.1 106.7 L157 106 L160.2 106.4 L164.6 103.7 L171.7 102.2 L175 100.7 L180.6 101.9 L184.5 103.7 L190.1 103.6 L196.1 109.3 L203.9 110.1 L204.4 115.2 L210.7 120.7 L218.9 120.8 L229.8 123.7 L232.4 122.8 L234.7 124.3 L237 123.8 L242.8 120.5 L251.2 119.3 L255.9 117.4 L258.6 117.7"/></svg>
