<svg xmlns="http://www.w3.org/2000/svg" viewBox="0 0 256 256" fill-rule="evenodd"><rect width="256" height="256" fill="#a8cbe6"/><path fill="#94b06e" d="M164.2 6 L159.2 12.5 L157.6 11.2 L155.5 2.8 L152.6 -2.6 L126.2 -2.6 L128 -0.3 L124.8 0.1 L113.4 -2.6 L101.1 -2.6 L104.6 8 L104 9.3 L100.3 7.3 L95.8 3 L93.5 2.4 L89.7 4.2 L89.6 6.6 L94.7 13.9 L94.2 15 L90.8 16 L85.9 21.9 L85.9 24.6 L88.1 29.7 L91 34.6 L97.1 41.8 L112.3 55.4 L118 63.3 L120.3 69.5 L119.9 69.8 L112 59.6 L107.5 57.4 L95.8 47.8 L84.9 37.2 L83.8 37.3 L82.5 41.5 L83.5 44.7 L87.3 50.1 L87 52.3 L83.8 51.4 L79.5 46.1 L72.9 30.5 L70.3 28.4 L64.1 26.4 L59.8 21 L58.1 19.9 L53.7 23.8 L47.8 33.5 L43.4 37.2 L38.5 39.6 L38.9 42.3 L53.4 54.1 L55 55.8 L56.4 59.2 L52.3 59.2 L50.8 61.4 L49.5 61.6 L46.9 59.7 L43.7 55.7 L41.2 54.1 L38.4 53.6 L36 55 L34.1 58.4 L33.9 61.1 L29.5 53.3 L26.9 50.8 L22 49.8 L16.3 52.7 L12.8 56.3 L7 64.5 L4.2 66.3 L-2.6 66.6 L-2.6 87.1 L2 86.9 L1.8 88.8 L-2.6 94.9 L-2.6 104.3 L11.6 94.2 L17.3 92.4 L21.6 92.9 L27.3 95.4 L27.1 96.7 L21.3 96 L15.7 97.3 L12.6 99.4 L6.5 106 L3.7 110.5 L4.1 112.5 L9 116.4 L8.4 117.2 L5 118.1 L0.6 122.1 L0.2 125.7 L4.3 132.4 L6.8 133 L12.7 130.5 L31 128.9 L38.4 125.8 L46.9 117 L52.3 113.7 L54.5 113 L57.6 113.7 L55.9 116.6 L47.7 125.8 L40.1 132.2 L34.9 134.8 L29.7 135.7 L18.1 134.8 L9.5 139.1 L8.4 141 L10.7 147.1 L22.7 158 L26 159.4 L30.4 158.4 L42.9 138.4 L45.9 133.9 L48 132.3 L61 127.6 L76.4 124 L75.7 127.3 L60.5 131.7 L54.1 135.7 L49.6 140.3 L42.6 149.9 L38.6 158.8 L38.5 161.2 L39.5 163 L42.7 165.7 L44.4 165.9 L48.6 164.6 L53.4 168.4 L63.5 168.4 L65.8 167.6 L69.6 163.2 L72.3 158.1 L75.1 155.3 L82.1 153.7 L85.4 151.8 L88.5 151.2 L87.2 154.3 L82.3 161.1 L81 164.8 L84 166.1 L86.8 166 L102.3 159.5 L112.3 151.8 L116.5 146.2 L119 141.4 L120.6 132.1 L122.9 126.2 L124.3 125.5 L125.9 126.1 L128.2 123.7 L132.5 115.7 L136.8 110.3 L149.2 102.8 L147.6 106.1 L141.8 111 L133.3 122.5 L129.4 131.6 L128.4 138.3 L130.3 140.5 L136.5 141.7 L146.6 142.3 L149.6 143.6 L149.5 144.6 L132.1 150.3 L118 159.9 L113.2 168.2 L102.6 174 L84.9 178.7 L79.8 182.3 L80.1 185.4 L83.3 192.3 L87.2 199.5 L92.6 206.6 L102.3 223.6 L105.7 224.8 L110.5 224.5 L112.4 225.1 L108.4 229.1 L102 228.6 L94.6 224.1 L90.5 217.9 L83.3 204.3 L79.6 200.2 L71.4 188.6 L67.6 186.4 L60.6 185.3 L55.1 185.8 L42 182.6 L39.8 186.7 L38.5 195.7 L39.9 202.6 L40.7 213.9 L45.2 221.8 L51.7 223.8 L53.8 225.5 L55.9 228.8 L66 252.7 L70.2 258.6 L176.2 258.6 L176.6 252.5 L173.8 252.1 L169.6 254 L163.8 251.9 L159.9 247.5 L158 246.6 L155.9 241.2 L151.7 237.2 L149.6 236.5 L149.1 235 L158.5 237.5 L161.9 240.1 L164.9 241.1 L167.7 240.7 L173 238.4 L177.4 238.7 L179.9 238 L183.6 235.7 L188.1 236.1 L189.3 235.5 L191.1 229.7 L190.8 226.7 L188 219.6 L186.1 218.7 L181.5 218.2 L175.9 215.8 L174.5 214.5 L177.6 212 L180.4 211.6 L188.3 215 L199.8 223.5 L202.3 224 L205.2 223.1 L211.8 219.2 L214.9 213.7 L215 211.9 L212.1 209.6 L218.9 203.9 L221.2 199.1 L221.1 197.6 L217.6 195.8 L209.2 199.1 L205.4 198.1 L204.1 196.9 L204.2 195.7 L205.6 194.6 L210.8 194.2 L215 191.4 L224.5 188.3 L225.1 185.4 L219.4 167.5 L225.9 177.2 L228.1 178.9 L230.6 179.3 L232.7 178.2 L243.1 157.8 L258.6 138.7 L258.6 108.4 L246.7 115.5 L244.1 116.5 L242.1 115.5 L242.5 113.1 L258.6 101.5 L258.6 -0.6 L257.2 0.7 L253.3 2.1 L248.3 2.7 L245 2 L246.2 -0 L249.7 -2.6 L159.5 -2.6 L163.4 2.9 L164.2 6ZM54.8 252.2 L56.4 249.1 L56.2 246.4 L49.5 228.8 L48.3 229.9 L45.4 237.1 L43.5 229.2 L41.7 227.3 L38.1 226.6 L35 230.1 L31.4 231.3 L30.8 230.8 L32.5 225.6 L34.4 210.7 L31.8 201 L23.6 197.4 L24.2 195 L27 191.4 L26.5 179 L21.3 175.1 L17.9 175.2 L15.4 178 L15.8 186.9 L18.4 188.9 L20.5 196.5 L19 195 L16.6 195.2 L11.2 190.7 L9.1 186.3 L9.7 179.8 L9.1 176.6 L9.9 174.3 L8.7 169.5 L7.6 168 L5.4 167.5 L3.7 168.1 L1.6 170.3 L-2.6 166.8 L-2.6 258.6 L46.9 258.6 L54.8 252.2Z"/><path fill="#bac2a8" d="M233.4 177.1 L225.8 177.1 L228.1 178.9 L230.6 179.3 L233.4 177.1ZM176.6 252.5 L173.8 252.1 L169.6 254 L163.8 251.9 L159.9 247.5 L158 246.6 L155.9 241.2 L151.7 237.2 L149.6 236.5 L149.1 235 L158.5 237.5 L161.9 240.1 L164.9 241.1 L167.7 240.7 L173 238.4 L177.4 238.7 L179.9 238 L183.6 235.7 L188.1 236.1 L189.3 235.5 L191.1 229.7 L190.8 226.7 L188 219.6 L186.1 218.7 L181.5 218.2 L175.9 215.8 L174.5 214.5 L177.6 212 L180.4 211.6 L188.3 215 L199.8 223.5 L202.3 224 L205.2 223.1 L211.8 219.2 L214.9 213.7 L215 211.9 L212.1 209.6 L218.9 203.9 L221.2 199.1 L221.1 197.6 L217.6 195.8 L209.2 199.1 L205.4 198.1 L204.1 196.9 L204.2 195.7 L205.6 194.6 L210.8 194.2 L215 191.4 L224.5 188.3 L225.1 185.4 L222.4 177.1 L91.1 177.1 L84.9 178.7 L79.8 182.3 L80.1 185.4 L87.2 199.5 L92.6 206.6 L102.3 223.6 L105.7 224.8 L110.5 224.5 L112.4 225.1 L108.4 229.1 L106.2 229.5 L102 228.6 L94.6 224.1 L90.5 217.9 L83.3 204.3 L79.6 200.2 L71.4 188.6 L67.6 186.4 L60.6 185.3 L55.1 185.8 L42 182.6 L39.8 186.7 L38.5 195.7 L39.9 202.6 L40.7 213.9 L45.2 221.8 L51.7 223.8 L53.8 225.5 L55.9 228.8 L66 252.7 L70.2 258.6 L176.2 258.6 L176.6 252.5ZM53.6 253.8 L56.4 249.1 L56.2 246.4 L49.5 228.8 L48.3 229.9 L45.4 237.1 L43.5 229.2 L41.7 227.3 L38.1 226.6 L35 230.1 L31.4 231.3 L30.8 230.8 L32.5 225.6 L34.4 210.7 L31.8 201 L23.6 197.4 L24.2 195 L27 191.4 L26.5 179 L24.4 177.1 L16 177.1 L15.4 178 L15.8 186.9 L18.4 188.9 L20.5 196.5 L19 195 L16.6 195.2 L11.2 190.7 L9.1 186.3 L9.7 179.8 L9.1 177.1 L-2.6 177.1 L-2.6 258.6 L46.9 258.6 L53.6 253.8Z"/><path fill="#bcc3aa" d="M257.2 0.7 L253.3 2.1 L248.3 2.7 L245 2 L246.2 -0 L249.7 -2.6 L159.5 -2.6 L163.4 2.9 L164.2 6 L159.2 12.5 L157.6 11.2 L155.5 2.8 L152.6 -2.6 L126.2 -2.6 L128 -0.3 L124.8 0.1 L113.4 -2.6 L101.1 -2.6 L104.6 8 L104 9.3 L100.3 7.3 L95.8 3 L93.5 2.4 L89.7 4.2 L89.6 6.6 L94.7 13.9 L94.2 15 L90.8 16 L88 18.6 L85.9 21.9 L85.9 24.6 L91 34.6 L97.1 41.8 L112.3 55.4 L118 63.3 L120.3 69.5 L119.9 69.8 L117.4 67 L112 59.6 L107.5 57.4 L95.8 47.8 L84.9 37.2 L83.8 37.3 L82.5 41.5 L83.5 44.7 L87.3 50.1 L87 52.3 L83.8 51.4 L79.5 46.1 L72.9 30.5 L70.3 28.4 L64.1 26.4 L59.8 21 L58.1 19.9 L53.7 23.8 L47.8 33.5 L43.4 37.2 L38.5 39.6 L38.9 42.3 L53.4 54.1 L55 55.8 L56.4 59.2 L52.3 59.2 L50.8 61.4 L49.5 61.6 L46.9 59.7 L43.7 55.7 L41.2 54.1 L38.4 53.6 L36 55 L34.1 58.4 L33.9 61.1 L29.5 53.3 L26.9 50.8 L22 49.8 L16.3 52.7 L12.8 56.3 L7 64.5 L4.2 66.3 L-2.6 66.6 L-2.6 87.1 L2 86.9 L1.8 88.8 L-2.6 94.9 L-2.6 104.3 L11.6 94.2 L17.3 92.4 L21.6 92.9 L27.3 95.4 L27.1 96.7 L21.3 96 L15.7 97.3 L12.6 99.4 L6.5 106 L3.7 110.5 L4.1 112.5 L9 116.4 L8.4 117.2 L5 118.1 L0.6 122.1 L0.2 125.7 L4.3 132.4 L6.8 133 L12.7 130.5 L31 128.9 L38.4 125.8 L46.9 117 L52.3 113.7 L54.5 113 L57.6 113.7 L55.9 116.6 L47.7 125.8 L40.1 132.2 L34.9 134.8 L29.7 135.7 L18.1 134.8 L9.5 139.1 L8.4 141 L10.7 147.1 L22.7 158 L26 159.4 L30.4 158.4 L42.9 138.4 L45.9 133.9 L48 132.3 L61 127.6 L76.4 124 L75.7 127.3 L60.5 131.7 L54.1 135.7 L49.6 140.3 L42.6 149.9 L38.6 158.8 L38.5 161.2 L39.5 163 L42.7 165.7 L44.4 165.9 L48.6 164.6 L53.4 168.4 L63.5 168.4 L65.8 167.6 L69.6 163.2 L72.3 158.1 L75.1 155.3 L82.1 153.7 L85.4 151.8 L88.5 151.2 L87.2 154.3 L82.3 161.1 L81 164.8 L84 166.1 L86.8 166 L102.3 159.5 L112.3 151.8 L116.5 146.2 L119 141.4 L120.6 132.1 L122.9 126.2 L124.3 125.5 L125.9 126.1 L128.2 123.7 L132.5 115.7 L136.8 110.3 L149.2 102.8 L147.6 106.1 L141.8 111 L133.3 122.5 L129.4 131.6 L128.4 138.3 L130.3 140.5 L136.5 141.7 L146.6 142.3 L149.6 143.6 L149.5 144.6 L132.1 150.3 L118 159.9 L113.2 168.2 L102.6 174 L84.9 178.7 L79.8 182.3 L80.1 185.4 L83.3 192.3 L87.2 199.5 L92.6 206.6 L100.4 221.1 L102.3 223.6 L105.7 224.8 L110.5 224.5 L112.4 225.1 L110.7 227.3 L108.4 229.1 L102 228.6 L94.6 224.1 L90.5 217.9 L83.3 204.3 L79.6 200.2 L71.4 188.6 L67.6 186.4 L60.6 185.3 L55.1 185.8 L42 182.6 L39.8 186.7 L38.5 195.7 L39.9 202.6 L40.7 213.9 L45.2 221.8 L51.7 223.8 L53.8 225.5 L56.2 229.5 L191.1 229.5 L190.8 226.7 L188 219.6 L186.1 218.7 L181.5 218.2 L174.5 214.5 L177.6 212 L180.4 211.6 L188.3 215 L199.8 223.5 L202.3 224 L211.8 219.2 L214.9 213.7 L215 211.9 L212.1 209.6 L218.9 203.9 L221.2 199.1 L221.1 197.6 L217.6 195.8 L209.2 199.1 L205.4 198.1 L204.1 196.9 L204.2 195.7 L205.6 194.6 L210.8 194.2 L215 191.4 L224.5 188.3 L225.1 185.4 L219.4 167.5 L225.9 177.2 L228.1 178.9 L230.6 179.3 L232.7 178.2 L243.1 157.8 L258.6 138.7 L258.6 108.4 L246.7 115.5 L244.1 116.5 L242.1 115.5 L242.5 113.1 L258.6 101.5 L258.6 -0.6 L257.2 0.7ZM31.1 229.5 L32.5 225.6 L34.4 210.7 L31.8 201 L23.6 197.4 L24.2 195 L27 191.4 L26.5 179 L21.3 175.1 L17.9 175.2 L15.4 178 L15.8 186.9 L18.4 188.9 L20.5 196.5 L19 195 L16.6 195.2 L11.2 190.7 L9.1 186.3 L9.7 179.8 L9.1 176.6 L9.9 174.3 L8.7 169.5 L7.6 168 L5.4 167.5 L3.7 168.1 L1.6 170.3 L-2.6 166.8 L-2.6 229.5 L31.1 229.5ZM35.8 229.5 L43.6 229.5 L41.7 227.3 L38.1 226.6 L35.8 229.5ZM48.6 229.5 L49.8 229.5 L49.5 228.8 L49.2 228.6 L48.6 229.5Z"/><path fill="#bec5ac" d="M257.2 0.7 L253.3 2.1 L248.3 2.7 L245 2 L246.2 -0 L249.7 -2.6 L159.5 -2.6 L163.4 2.9 L164.2 6 L159.2 12.5 L157.6 11.2 L155.5 2.8 L152.6 -2.6 L126.2 -2.6 L128 -0.3 L124.8 0.1 L113.4 -2.6 L101.1 -2.6 L104.6 8 L104 9.3 L100.3 7.3 L95.8 3 L93.5 2.4 L89.7 4.2 L89.6 6.6 L94.7 13.9 L94.2 15 L90.8 16 L88 18.6 L85.9 21.9 L85.9 24.6 L91 34.6 L97.1 41.8 L105.6 49.5 L258.6 49.5 L258.6 -0.6 L257.2 0.7ZM47.7 49.5 L81.9 49.5 L77.6 42.3 L72.9 30.5 L70.3 28.4 L64.1 26.4 L59.8 21 L58.1 19.9 L53.7 23.8 L47.8 33.5 L43.4 37.2 L38.5 39.6 L38.9 42.3 L47.7 49.5ZM86.9 49.5 L97.8 49.5 L87.9 39.6 L84.9 37.2 L83.8 37.3 L82.5 41.5 L83.5 44.7 L86.9 49.5Z"/><path fill="#f3f6f8" d="M57.2 33.6 L59 35.5 L59.6 24.1 L58 21.5 L53.9 23.6 L57.2 33.6ZM108.1 30.7 L107.3 27 L107.5 19.1 L106.7 16.7 L105.6 25.4 L103 23.7 L102.2 24.8 L102.6 31.7 L105.7 36.4 L108.6 44 L109.3 34.7 L108.7 30.4 L108.1 30.7ZM75.7 47.9 L74.9 37.8 L72.7 33.1 L70.6 32.4 L70.4 35.6 L72.8 41.6 L74.2 51.1 L74.9 51.5 L75.7 47.9ZM62.5 104.7 L62.2 111.7 L64.2 119.3 L65.6 119.8 L67.4 117.5 L72.9 119.1 L74.8 117.5 L75.8 119.2 L84.7 114.6 L86 115.3 L86.9 113.5 L88 116.7 L91.2 116.3 L92.4 114.4 L92.9 116.5 L94 112.9 L96.6 123.5 L96.1 130.4 L97.2 138.6 L103.8 135.4 L105.9 131.5 L108.8 128.3 L110.7 129.6 L112.2 127.2 L115.6 124.4 L114.1 123 L112.8 118.1 L111 118.3 L110.2 117 L109.1 107.6 L109.8 106.4 L111.8 106.9 L112.4 109.2 L114.8 104.9 L116.2 107.8 L117.3 105.8 L118 106 L118.9 108.7 L123.8 110.8 L127.3 109.7 L129.4 104.9 L133.7 107.3 L135.6 104.9 L136.6 105.9 L138.3 103.6 L138.3 98.9 L132.8 85.5 L131.3 85.4 L130.8 90.2 L129.5 91.5 L128.7 89.9 L128 86.4 L128.1 75.5 L127.3 74.3 L124.8 79.3 L123.1 78.1 L116.1 80.3 L114 79.4 L112.8 76.9 L111.9 66.9 L109.3 63 L104 67.1 L101.7 67.5 L97.2 84.3 L96.3 84.3 L94.6 74.4 L93.5 75.3 L92.7 83.3 L87.7 86.4 L87 84.4 L84.6 86.9 L83.6 86.5 L81.9 74.4 L80 73.3 L77.3 74 L74 76.4 L72.2 81 L71.6 87.3 L68.5 87.2 L65.2 91.2 L63.5 82.3 L59.1 79.1 L53.5 80.9 L51.9 82.7 L51.9 86.3 L53.3 88.7 L60.6 92.4 L62.8 100.8 L63.8 96.1 L65.4 99.1 L67.5 99.1 L68.2 101 L67.8 108.2 L66.1 109.2 L64.6 108.2 L63.4 104.6 L62.5 104.7ZM82.4 138.8 L87.3 139.1 L88 140.1 L89.8 137 L91.7 135.6 L92.7 125.3 L92 124.6 L90.9 126.8 L80.6 132.3 L78.4 131.4 L77.1 132.9 L75.6 132 L69 134.2 L68 135.5 L65.4 135.5 L65.7 140.1 L69 139.7 L71.2 142.3 L71.9 144.8 L73.9 141.1 L76.2 139.3 L77.5 141.5 L78.9 139.4 L82.4 138.8ZM4.4 248.5 L5.6 247.3 L7.1 249 L6.3 258.6 L15.7 258.6 L16.7 254.2 L15.1 240.1 L12.3 237.8 L11.4 235.1 L9.9 233.6 L6.4 234 L3.9 232.6 L3.4 229.6 L4.7 223.1 L3.8 219 L1.5 219.6 L0.3 215.8 L0.3 212.4 L-2.6 208.8 L-2.6 241.3 L-1.2 242.3 L-0.1 245.4 L3 246.2 L4.4 248.5ZM255.9 34.7 L258.6 32.6 L258.6 14.2 L255.7 13 L250.8 16.2 L249.7 22.8 L251.7 30.1 L255.9 34.7ZM127.8 58 L129.6 67.4 L130.5 66.7 L131.1 62 L133.3 63.3 L133.5 68.2 L132.6 74.1 L134.3 79.3 L135.2 79.3 L137.5 84.4 L138.2 83.5 L139.7 85.3 L141.2 85.3 L144.7 89.2 L147.3 87.1 L148.4 84.6 L150.5 83.2 L152.7 84 L154 82.1 L155.1 73.2 L156.1 74.6 L156.4 77.2 L155.9 88.6 L156.9 93.3 L158.9 80.3 L161.7 77.2 L165.4 78.5 L166.1 82.8 L165.5 92.2 L163.1 94.2 L162.7 96 L165.7 97.6 L167.5 93.4 L167.6 89 L169.9 84.6 L176.7 83.8 L177.4 85.1 L179.3 79.3 L181.9 81.8 L183.1 80.4 L184 74.2 L189.9 70 L191.7 65.6 L192.3 57.9 L193.6 62 L193.3 68.5 L194.1 71 L197.3 65.1 L201.1 63 L202 59.5 L207 57.8 L209.8 46.1 L210.9 46.5 L211.7 49.5 L213 48.7 L214.7 52.3 L216.1 51 L217.2 43.5 L217.9 45.5 L218.4 43.5 L220.1 32.1 L219.7 40.2 L220.4 44.9 L222.7 48.2 L223.5 45.9 L227.5 46.8 L232.8 42.4 L236 43 L238.2 41.8 L240.3 31.5 L242.5 25.5 L242.3 20 L241.1 18.3 L235.5 26.4 L234.9 29.6 L232.8 31.7 L231.5 30.3 L228.2 32.5 L222.3 31.1 L221.4 26.6 L221.4 18.8 L225.5 2.4 L226.4 0.5 L228.4 4.9 L230.8 3.7 L232.6 -2.6 L205.1 -2.6 L204.7 6.6 L202.3 13.3 L201.6 21.5 L200.8 23.4 L199.8 23.7 L198.9 17.3 L197.8 30.2 L196.9 30.2 L196 27.6 L195.3 19.8 L194.4 20.4 L193.7 27.8 L191.7 31.9 L190.3 32.6 L189 31.4 L188.2 23.6 L188.3 14.8 L187.5 11 L184 5 L179 3.4 L178 6 L175.8 4.7 L172.9 10.2 L172.9 17.2 L173.9 24.1 L177.3 27.2 L177.1 37 L175.3 40.1 L173.6 40.1 L172.1 37.7 L171.1 39.6 L170.4 47.4 L168.4 45.7 L167.3 46 L166.4 48.2 L165.5 46.6 L162.8 32.4 L162 46.9 L161.1 51 L159.6 47.4 L157.5 47.4 L156.4 45.9 L155.7 41.3 L153.7 43.1 L153 41.7 L153.6 20.9 L151.5 9.8 L148.9 9.1 L147.8 4.4 L140.2 3.4 L138.2 9.7 L138.1 16.5 L136.9 17.1 L135.3 9.5 L133.4 23 L131 20.5 L129.9 21.8 L128.5 20.6 L126.6 15.9 L125.1 15 L123.9 16.3 L120.2 40.1 L120.5 44.4 L121.6 37.2 L122.5 39.4 L121.3 54.6 L121.8 63.2 L123.6 64 L124.5 58.6 L124.9 46.7 L126.8 56.5 L127.8 58ZM204.2 153.1 L206.8 146.8 L207.6 146.8 L208.3 148.4 L211.4 143 L212.8 143 L213.8 146.5 L215 145.2 L217.4 131 L216.9 125 L216.1 125 L215.3 126.5 L212.9 139.7 L211.6 137.9 L209.6 139.8 L204.8 141.4 L200 141.4 L198.2 135.8 L197.8 130.6 L196 128.1 L190.9 129.4 L190 131.1 L187.3 127.7 L181.1 130.5 L179 136.3 L177.3 137.9 L175.2 137.9 L171.6 144 L168.6 147 L167.5 146.2 L166 149.1 L162.3 147.9 L161.2 152 L160.9 158.7 L159.5 161.7 L158.6 162.2 L157.3 160.8 L156.6 155.9 L155 161.4 L153.4 159.6 L150.4 158.9 L145.3 158.9 L142.6 160.8 L143.7 166.9 L143.3 171.6 L141.5 172.4 L138.9 169.5 L139.2 173.1 L140.6 175.1 L140.7 181.8 L139.6 184 L137.2 183.2 L134 170.2 L131 177.1 L126.4 180.7 L121 189.2 L119.6 187.9 L117.7 190.9 L116.7 190.4 L115.8 187.9 L114.9 188.6 L114.1 191.6 L112.6 192.7 L109.5 192.6 L108 195.1 L106.3 195.1 L105.7 195.8 L105.6 199.4 L107.2 201.8 L108 200.3 L108.7 206.1 L107.9 210 L103.9 214.8 L104.2 218.1 L110 217.2 L111.3 219.1 L112.6 217 L114.7 217.4 L120.6 213.4 L125.1 218.4 L126.4 217.2 L127.5 217.9 L129.3 221.5 L131 219.1 L133.4 218.3 L144.9 220.7 L145.8 227.1 L152 228.8 L152.8 230.6 L154.5 230.7 L157 227.9 L161.4 227.5 L163.3 227.7 L165 230.5 L165.7 226.8 L165.2 222.3 L165.8 214.5 L167 212.7 L169.8 215 L170.5 212.9 L171.4 213.4 L172.4 216.3 L174.1 198 L175.1 195.8 L176.6 199.2 L182.1 207.3 L186.1 208.4 L189.3 207.4 L191.8 205.2 L193 202 L193.8 193.4 L194 179.7 L194.7 175.3 L198.9 186.7 L201.9 181.4 L207.7 177.6 L209.2 175.6 L209.7 172.1 L210.9 170.4 L211.8 170.2 L213.8 175.5 L216.3 174.3 L218.2 169.3 L217.5 165.7 L218.2 162.7 L220.1 161.4 L222.2 164 L223.3 158.7 L224.2 164.5 L225.6 165.8 L227.4 165.8 L228.8 163.8 L229.8 156.9 L232.5 153.7 L232.7 148 L231 143.7 L230.2 138.5 L225.4 136.8 L221.4 144.2 L217 149 L215.1 154.4 L213.3 156.7 L211.9 155.4 L210.4 156.4 L209.1 161.1 L206.4 166.1 L205.1 164.9 L204.6 162.3 L204.2 153.1ZM191.8 185.3 L190.7 195.2 L189.3 197.6 L187.2 196 L186.4 191.4 L187.2 179.7 L188.1 178.1 L189.5 181.4 L192.5 176.2 L192.8 182.6 L191.8 185.3ZM179.2 220.4 L175 220.7 L174 222.9 L174.8 225.5 L179 226.2 L180.6 225.6 L181.3 224 L180.7 221 L179.2 220.4ZM122.8 250.1 L123.9 244.8 L125.8 243.7 L130.2 245.6 L131.7 241.5 L134.9 243.8 L137.3 240.7 L138.9 241.5 L140.8 239.1 L142.7 239.3 L142.9 235.2 L139.6 229.8 L130.7 227.9 L128.7 229.6 L126.4 229.4 L124.1 232.6 L122.3 231.9 L114.9 235.4 L112.3 239.9 L111.6 244.2 L112.8 247.8 L116.7 249.4 L117.8 250.9 L120.7 251.7 L122.8 250.1Z"/><path fill="#a8cbe6" d="M196.7 84.2 L227.4 70.7 L239.3 62.6 L232.3 64.4 L200.9 79.6 L195.2 83.4 L196.7 84.2Z"/></svg>
