<svg xmlns="http://www.w3.org/2000/svg" viewBox="0 0 256 256" fill-rule="evenodd"><rect width="256" height="256" fill="#a8cbe6"/><path fill="#94b06e" d="M-2.6 256 L258.6 256 L258.6 -2.6 L-2.6 -2.6 L-2.6 256Z"/><path fill="#c0c7af" d="M258.6 256 L258.6 199.1 L-2.6 199.1 L-2.6 256 L258.6 256Z"/><path fill="#bec5ac" d="M258.6 256 L258.6 -2.6 L-2.6 -2.6 L-2.6 256 L258.6 256Z"/><path fill="#bcc3aa" d="M258.6 20.3 L258.6 -2.6 L-2.6 -2.6 L-2.6 20.3 L258.6 20.3Z"/><path fill="#a88f73" d="M226.3 157.8 L152.9 148.1 L15.3 208.6 L-2.6 220.4 L-2.6 256 L258.6 256 L258.6 127.4 L226.3 157.8Z"/><path fill="#f3f6f8" d="M-2.6 256 L258.6 256 L258.6 -2.6 L-2.6 -2.6 L-2.6 256Z"/></svg>
