<svg xmlns="http://www.w3.org/2000/svg" viewBox="0 0 256 256" fill-rule="evenodd"><rect width="256" height="256" fill="#a8cbe6"/><path fill="#94b06e" d="M7.7 149.4 L12.8 148.4 L14.9 149.2 L21.2 149.1 L22.6 144.8 L25.1 150.1 L22.7 150.9 L27.1 150.4 L29 148.7 L28.7 150 L30.9 149.4 L32.2 146.8 L33.3 147.3 L34.2 146.4 L34.3 148.2 L31.8 149.4 L42.6 147.4 L44.1 148.6 L40.3 148.7 L48.3 151.7 L48.5 150.7 L50 150.1 L49.3 151.4 L49.8 152.4 L49.2 152.3 L52.9 155.5 L53.3 157.1 L52.2 156 L52.2 157 L53.3 158.1 L63.9 155.1 L64.7 153.1 L67.8 152.5 L71.7 154.9 L76.3 161.1 L82.3 166.3 L83.6 168.4 L83.5 173.7 L81.4 181.9 L82.6 183.7 L84.1 182.8 L84.2 181.6 L83.3 180.4 L86.4 181.7 L83.8 186 L82.9 186.4 L87.7 194.4 L89 194.8 L89 193.6 L90.9 193.2 L90.3 194.1 L90.6 198.5 L93 196.7 L91.5 199.3 L92.5 200 L94.3 205.7 L98.2 207.6 L101.1 213.5 L103.1 214.8 L102.8 215.3 L100.9 214.2 L101.1 216.3 L108.3 215.2 L109.6 213.9 L112 207 L112.3 207.6 L113.2 195.2 L105.3 175 L104.2 170.1 L105.9 172.5 L105.9 175.5 L106.9 173.2 L106.8 177.6 L108.6 181.2 L107.1 176.4 L107.8 173.6 L103.5 166.3 L99.6 156.6 L96.5 143.3 L97.4 138 L98.2 138.4 L99.1 137.2 L98.1 136 L99 135.8 L100.4 133.6 L99.4 133.5 L100.5 132.6 L100.1 131.3 L101.6 130.2 L101.1 129 L103.3 128.1 L104.1 125.8 L105.9 124.5 L104.6 121.3 L105.7 122.8 L106.4 122 L107.2 123.5 L108.4 121.7 L106.6 120.5 L109.6 120.6 L114.5 118.4 L114.5 116.4 L116 116.7 L118.2 115.1 L118.5 113.9 L122 112 L122.6 108.4 L123 110.6 L123.6 108.3 L127 104 L131.9 101.4 L136.4 101.4 L137.1 97.9 L137.4 101 L139.4 96.3 L143.6 93 L143.2 90.1 L144.5 91.9 L146.4 90.5 L150.9 90.5 L154.3 88.6 L155.2 87.3 L154.1 86.6 L150.8 87.2 L148.2 86.1 L147.1 84.3 L150.4 86.6 L152.1 85.4 L153.5 82.7 L147.5 79.1 L150.9 80.4 L152.7 79 L153.7 80.9 L157.3 81.5 L161.9 77.4 L162 74.6 L161 73 L159.5 73.9 L159.3 76.3 L158.3 76.8 L158.5 72.9 L151 73 L150.9 69.2 L151.6 71.4 L152.9 72.2 L154.9 70.6 L156.7 70.8 L156.2 69.8 L157.6 70.4 L157.6 68.5 L161.3 70.9 L159.4 65.8 L159.9 63.1 L162.4 71 L164.6 75 L162 69.2 L159.3 59.5 L156.5 59 L153.7 59.8 L151.6 55.8 L145.1 53.6 L152.1 55.1 L154.7 58.4 L156.1 57.5 L155.6 56.2 L152.3 53.7 L150.7 51.1 L154.1 54.4 L154.8 54 L154.7 52.8 L156.3 53.2 L156.2 51.2 L155.1 50.7 L155.8 50.1 L153 48.7 L146.6 41.5 L148.6 42.6 L153.7 48.5 L155.4 48.6 L156.3 45.5 L153 42.6 L149 41.1 L147.4 38.8 L144.8 38.9 L144.7 36.3 L147.4 32.7 L147.6 31 L147.7 32.7 L145.4 36.1 L145.3 38 L147.9 37.5 L149.2 39.7 L149.4 38.3 L150.5 40.1 L154.1 41.4 L155.4 42.7 L154.6 40.1 L152 37.4 L151.7 36.2 L151.6 35.1 L152.8 37.6 L154.8 38.6 L153.6 36.2 L153.7 30.2 L152.9 28.5 L153.9 29 L154.4 27.6 L152.8 25.5 L154.5 26.1 L155.5 23.5 L156.1 24.7 L156.5 23 L156.8 23.8 L157.7 23.5 L158.6 21.2 L159.8 20.8 L159.6 22 L160.7 21.9 L159.3 23.4 L160.7 23.9 L158.4 24 L157.5 24.8 L156.6 26.6 L156.8 28.5 L157.8 27.6 L157.8 28.2 L157.2 29.5 L155.7 29.3 L155.5 30.1 L155.5 30.7 L157.1 30.6 L157.4 31.6 L155.9 32.1 L155.4 33.6 L156.1 32.7 L156.9 32.9 L159.1 34.9 L156.3 35.2 L156.3 37.6 L158.7 39.9 L160.9 38.7 L160.1 41.5 L161.6 42.7 L161 44.4 L163.2 44.6 L159.6 52.6 L159.3 54.5 L160 56.1 L161.4 52.2 L164 50.3 L166.6 43 L168.8 40.3 L169.3 38.1 L169.8 38.7 L170.2 37.8 L169.8 35.6 L168.5 35.4 L169.7 32.7 L168.6 32 L166.2 28 L166 25.3 L164.1 22.4 L164 20 L166.1 17.2 L168.7 16.2 L169.8 14.9 L168.9 16.6 L165.9 17.8 L164.7 22.2 L169.1 26.4 L171.8 27.3 L171.2 30.1 L173 29.4 L175.2 25.1 L177.2 23.7 L177.4 21.3 L178.3 21.5 L179.1 20.4 L181.3 14.8 L181.1 17.8 L182.4 8.7 L182.1 7.9 L179.3 7.9 L179 6.8 L182.9 1 L182.9 -2.6 L-2.6 -2.6 L-2.6 148.9 L4.7 151.7 L7.7 149.4ZM97.6 141.1 L96.9 143.2 L97.1 144.3 L97.6 141.1ZM21.5 150.3 L19.2 150.7 L21.9 150.6 L21.5 150.3ZM16.2 150.9 L14.5 150.4 L16.3 151.2 L16.2 150.9ZM8.9 153.4 L9.3 151.7 L7.5 153.1 L8.9 153.4ZM13.3 156.4 L12.9 153.2 L13 156.8 L13.3 156.4ZM12.5 157.4 L12 158.4 L12.8 157.1 L12.5 157.4ZM59.9 157.4 L56.9 158.8 L55.6 158.7 L56.8 159.1 L59.9 157.4ZM-0.6 161.4 L-1.8 160 L1.4 161 L2.4 162.6 L6.3 164.5 L7.4 166.1 L7.1 167.2 L8.7 165.9 L9.6 166.8 L11.1 165.1 L11.2 164.3 L9.3 162.6 L5.5 161.5 L3.7 160 L3.6 158.2 L7.3 156.3 L7.3 154.9 L6.8 153.3 L5.8 153.1 L4.7 155 L2.9 154.8 L2.1 153.8 L3.8 152.4 L3 151.6 L0.1 153.1 L-2.6 153.3 L-2.4 165.6 L-1.2 164.6 L-0.6 161.4ZM90.1 199.2 L89.6 197 L89.1 196.6 L90.1 199.2ZM88.9 199.4 L90.6 199.7 L88.7 198.5 L88.9 199.4ZM104.1 220.5 L104.8 220.3 L104.8 220.1 L104.7 220 L104.1 220.5ZM101.4 221.9 L103.2 221.1 L100.8 221.7 L101.4 221.9ZM98.1 222.6 L98.7 222 L97.6 221.2 L98.1 222.6ZM96.3 222.9 L96 222 L95.2 223.2 L96.3 222.9ZM94 223.7 L93.2 223.6 L93.2 223.8 L94 223.7ZM58.7 257.4 L62.6 256.2 L62.5 258 L67.9 256 L69.4 253.2 L75.3 252.6 L82.6 246.8 L92.1 246.9 L93.9 247.5 L94.6 248.7 L90.1 250.5 L92.7 252.7 L97.4 253 L99.2 254 L100.3 252 L101.5 254.1 L102.8 254.7 L108.1 254.5 L108.3 253.8 L111.1 256.9 L115.1 258.6 L144.3 258.6 L142.3 256.9 L141.3 256.7 L142.3 257.9 L141.7 258.1 L138.1 256.5 L134.9 254 L128.7 250.8 L122 250.3 L115.5 245.1 L115.8 244.4 L109.6 243.7 L106.4 241.7 L100.8 242.3 L99.4 241 L95.9 241.5 L89.9 240.6 L76.7 243.4 L67.8 247.1 L64.2 250.6 L64.6 254.4 L58.3 256.6 L58.7 257.4ZM78.7 257.9 L79.1 258.6 L84 258.6 L82.9 256.6 L79.7 256 L78.7 257.9ZM160.8 84 L159.5 84.7 L161.8 83.8 L160.8 84ZM153.3 91.5 L156.9 87.3 L154.3 89.8 L153.3 91.5ZM152.2 90.7 L151.6 90.6 L153.1 91.2 L152.2 90.7ZM109.5 184.5 L111.8 190.1 L108.8 181.9 L109.5 184.5ZM137.2 196 L132.3 196.6 L129.7 195.3 L129.3 197.1 L127.5 198.1 L125.3 196.7 L128.1 199.1 L137.4 197 L137.2 196ZM142.1 194.7 L145.6 199.3 L145.1 203.5 L143.3 205.2 L145.1 206.8 L146 202.4 L147.5 201.2 L147.2 198.7 L141.8 194 L137.2 194 L142.1 194.7ZM107.2 218.6 L109.4 216.3 L110.9 213.7 L109.8 214.3 L107.2 218.6ZM157.4 222.5 L157.8 216.3 L151.2 211 L150.4 212.7 L152.2 212.6 L155.1 214.1 L157.5 216.6 L156.9 220.3 L155.6 220.4 L157.4 222.5ZM141.5 217.7 L144 217.9 L144.8 217.5 L142.8 217.1 L141.5 217.7ZM106.5 219.3 L106.7 218.8 L106.2 219.3 L106.5 219.3ZM134.9 224.4 L136 227 L139.5 224.4 L139.4 221.7 L136.8 217 L134.7 215.5 L134.1 215.7 L134.4 219.1 L133.1 221.2 L133.8 222.4 L132.9 223.2 L132.7 222.6 L131.6 222.7 L133.6 224.6 L134.9 224.4ZM142 232.2 L140.9 227.9 L140.1 229.1 L139.3 228.5 L140.4 227.8 L139.9 227 L136.5 227.8 L138.2 230.1 L139.1 233.7 L141.4 233.8 L142 232.2ZM163.1 237.4 L159.9 235 L159.2 234.7 L158.9 235.5 L163.1 237.4ZM118 245.4 L119.2 246.6 L121.2 247.5 L118.6 245.4 L118 245.4ZM128.6 248.7 L132.1 249.8 L133.3 249.7 L132 248.6 L128.6 248.7ZM133.5 250.4 L134.5 251.3 L136.2 251.8 L134.8 250 L133.5 250.4ZM136.4 253.3 L137.5 253.8 L138.3 253.5 L136.7 251.6 L136.4 253.3ZM137.5 254.2 L139.8 256.3 L140.7 254.6 L137.5 254.2ZM182.2 3.4 L186.8 -0.6 L190.6 -2.6 L183.4 -2.6 L183.1 1 L182.2 3.4ZM185.5 1.7 L182.4 3.8 L181.9 6 L183.5 4.9 L184.3 5.4 L183.2 6.2 L191.2 4.9 L205.9 -1.2 L203.6 -0.5 L202.7 -1 L198.2 0.9 L201.5 -2.6 L197.7 -0.2 L186.9 0.9 L186 2.1 L185.5 1.7ZM180.5 6.6 L180.9 4.8 L179.4 6.9 L180.5 6.6ZM180.8 18.4 L179.2 21.2 L179.2 21.6 L180.5 19.4 L180.8 18.4ZM169.6 39.6 L166.4 45.8 L168.4 42.9 L169.6 39.6ZM162.5 73.2 L163.3 74.8 L163.3 73.7 L162.5 73.2ZM164.9 82.5 L164.9 75.7 L164.6 82.5 L162.9 83.5 L164.9 82.5ZM167.2 228.7 L163.2 222.1 L162.4 222 L166 227.3 L164.9 228.8 L167.2 228.7ZM176.9 229 L176 229.3 L175.8 231 L177.2 229.7 L176.9 229ZM172.5 244.3 L172.4 243 L169.9 241.1 L167.1 234.7 L169.2 239.7 L168.1 240.9 L171 242.1 L172.5 244.3ZM179.3 246.5 L180.9 247.1 L181.6 246.6 L178.6 245 L179.3 246.5ZM178.9 253 L183.9 248.7 L183.8 246.3 L182.3 246.9 L182.8 249.4 L178.9 253ZM196.1 251.1 L192 249.7 L191.6 250.6 L194.7 250.9 L195.9 251.7 L196.1 251.1ZM206 257.4 L205.6 255.9 L204.7 255.9 L204.6 256.3 L206 257.4ZM201 257.1 L201.4 258.3 L203.2 257.8 L201 257.1ZM206.5 257.2 L206.7 257.9 L208.9 257.9 L208.6 257.3 L206.5 257.2Z"/><path fill="#aab26d" d="M144 258.3 L142.3 256.9 L141.3 256.7 L142.3 257.9 L141.7 258.1 L138.1 256.5 L134.9 254 L128.7 250.8 L122 250.3 L115.5 245.1 L115.8 244.4 L113.8 244.2 L74.7 244.2 L66.9 247.7 L64.2 250.6 L64.6 254.4 L58.2 257.1 L62.6 256.2 L62.5 258 L67.9 256 L69.4 253.2 L75.3 252.6 L82.6 246.8 L92.1 246.9 L93.9 247.5 L94.6 248.7 L90.1 250.5 L92.7 252.7 L97.4 253 L99.2 254 L100.3 252 L101.5 254.1 L102.8 254.7 L108.1 254.5 L108.3 253.8 L111.1 256.9 L115.1 258.6 L144 258.3ZM83.9 258.2 L82.4 256.4 L79.7 256 L78.8 257.3 L79.1 258.6 L83.9 258.2ZM139.8 256.3 L140.7 254.6 L137.5 254.2 L139.8 256.3ZM138.3 253.5 L136.9 252.3 L136.5 251.6 L136.4 253.3 L138.3 253.5ZM136.2 251.8 L134.8 250 L133.4 250.1 L134.5 251.3 L136.2 251.8ZM128.9 249 L130.3 249.6 L133.3 249.7 L132 248.6 L128.9 249ZM118 245.4 L119.2 246.6 L121.2 247.5 L118.6 245.4 L118 245.4ZM206.7 257.9 L208.9 257.9 L206.5 257.2 L206.7 257.9ZM203.1 257.7 L201 257.1 L200.9 257.8 L201.4 258.3 L203.1 257.7ZM204.7 255.9 L206.2 257.3 L205.6 255.9 L204.7 255.9ZM191.6 250.6 L194.7 250.9 L195.9 251.7 L196.3 251.3 L192 249.7 L191.6 250.6ZM182.3 246.9 L182.8 249.4 L178.9 253 L182.3 250.9 L183.9 248.7 L183.8 246.3 L182.3 246.9ZM181.6 246.6 L180 246 L178.6 245 L178.9 246.5 L180.9 247.1 L181.6 246.6ZM172.5 244.3 L172.2 244.2 L172.4 244.6 L172.5 244.3Z"/><path fill="#adb36f" d="M109.9 213 L100.9 213 L103.1 214.8 L102.8 215.3 L101.3 214.1 L100.5 215.2 L101.1 216.3 L105.4 216.1 L108.3 215.2 L109.9 213ZM107.5 242.8 L106.4 241.7 L100.4 242.2 L99.4 241 L87 241.1 L83.4 242.4 L76.7 243.4 L67.8 247.1 L64.2 250.6 L63.9 252.2 L64.5 254.1 L68.7 254.1 L69.4 253.2 L75.3 252.6 L82.6 246.8 L92.1 246.9 L93.9 247.5 L94.6 248.7 L90.1 250.5 L93.1 252.8 L97.4 253 L98.4 254 L99.9 253.5 L100.3 252 L101.4 254.1 L135 254.1 L128.7 250.8 L122 250.3 L115.5 245.1 L115.8 244.4 L107.5 242.8ZM138.3 253.5 L136.9 252.3 L136.5 251.6 L136.4 253.3 L138.3 253.5ZM136.2 251.8 L134.8 250 L133.4 250.1 L134.5 251.3 L136.2 251.8ZM128.9 249 L130.3 249.6 L133.3 249.7 L132 248.6 L128.9 249ZM118 245.4 L119.2 246.6 L121.2 247.5 L118.6 245.4 L118 245.4ZM158.9 235.5 L163.1 237.4 L159.2 234.7 L158.9 235.5ZM141.4 233.8 L142 231.7 L140.9 227.9 L140.1 229.1 L139.3 228.5 L140.4 227.8 L139.9 227 L136.5 227.8 L138.2 230.1 L139.1 233.7 L141.4 233.8ZM162.2 222.4 L166 227.3 L164.9 228.8 L167.2 228.7 L162.6 221.9 L162.2 222.4ZM94 223.7 L93.2 223.6 L93.2 223.8 L94 223.7ZM96.3 222.9 L96 222 L95.2 223.2 L96.3 222.9ZM98.1 222.3 L98.7 222 L97.6 221.2 L97.6 221.4 L98.1 222.3ZM101.4 221.9 L103.2 221.1 L100.8 221.7 L101.4 221.9ZM134.9 224.4 L136 227 L139.5 224.4 L139.4 221.7 L136.8 217 L134.7 215.5 L134.1 215.7 L134.4 219.1 L133.1 221.2 L133.8 222.4 L132.9 223.2 L132.7 222.6 L131.6 222.7 L133.6 224.6 L134.9 224.4ZM104.3 220.5 L104.7 220 L104.1 220.5 L104.3 220.5ZM106.5 219.3 L106.7 218.8 L106.2 219.3 L106.5 219.3ZM141.5 217.7 L144 217.9 L144.8 217.5 L142.8 217.1 L141.5 217.7ZM155.9 220.6 L157.4 222.5 L157.8 216.3 L155.4 213.9 L152.7 213 L155.1 214.1 L157.5 216.6 L156.9 220.3 L155.9 220.6ZM107.2 218.6 L109.4 216.3 L110.9 213.7 L109.8 214.3 L107.2 218.6ZM191.6 250.6 L194.7 250.9 L195.9 251.7 L196.3 251.3 L192 249.7 L191.6 250.6ZM182.3 246.9 L182.8 249.4 L178.9 253 L182.3 250.9 L183.9 248.7 L183.8 246.3 L182.3 246.9ZM181.6 246.6 L180 246 L178.6 245 L178.9 246.5 L180.9 247.1 L181.6 246.6ZM167.1 234.7 L169.2 239.7 L168.1 240.9 L171 242.1 L172.4 244.6 L172.4 243 L169.9 241.1 L167.1 234.7ZM176.9 229 L176 229.3 L175.8 231 L177.2 229.7 L176.9 229Z"/><path fill="#b1b471" d="M107.8 181.2 L86 181.2 L86.1 182.9 L82.9 186.4 L87.7 194.4 L89 194.8 L89 193.6 L90.9 193.2 L90.3 194.1 L90.6 198.5 L93 196.7 L91.5 199.3 L92.5 200 L94.3 205.7 L98.2 207.6 L101.1 213.5 L103.1 214.8 L102.8 215.3 L100.9 214.2 L101.1 216.3 L108.3 215.2 L109.6 213.9 L112 207 L112.3 207.6 L113.2 195.2 L107.8 181.2ZM85.9 181.2 L84.9 181.2 L85.4 181.6 L85.9 181.2ZM83.8 181.2 L81.6 181.2 L82.6 183.7 L83.9 183.2 L83.8 181.2ZM162.2 222.4 L163.7 223.1 L162.6 221.9 L162.2 222.4ZM96.3 222.9 L96 222 L95.4 223.1 L96.3 222.9ZM98.1 222.3 L98.7 222 L97.6 221.2 L97.6 221.4 L98.1 222.3ZM101.4 221.9 L103.2 221.1 L100.8 221.7 L101.4 221.9ZM131.8 223.1 L132.9 223.1 L132.7 222.6 L131.8 223.1ZM133 223.1 L139.4 223.1 L139.4 221.7 L136.8 217 L134.7 215.5 L134.1 215.7 L134.4 219.1 L133.1 221.2 L133.8 222.4 L133 223.1ZM104.3 220.5 L104.7 220 L104.1 220.5 L104.3 220.5ZM106.5 219.3 L106.7 218.8 L106.2 219.3 L106.5 219.3ZM141.5 217.7 L144 217.9 L144.8 217.5 L142.8 217.1 L141.5 217.7ZM155.9 220.6 L157.4 222.5 L157.8 216.3 L151.2 211 L150.4 212.7 L152.2 212.6 L155.1 214.1 L157.5 216.6 L156.9 220.3 L155.9 220.6ZM107.2 218.6 L109.4 216.3 L110.9 213.7 L109.8 214.3 L107.2 218.6ZM145.2 198.3 L145.1 203.5 L143.3 205.2 L145.1 206.8 L146 202.4 L147.5 201.2 L147.2 198.7 L141.8 194 L137.2 194 L142.1 194.7 L145.2 198.3ZM88.7 198.5 L90.2 200 L90.6 199.7 L88.7 198.5ZM90.1 199.2 L89.6 197 L89.1 196.6 L90.1 199.2ZM128.1 199.1 L137.4 197 L137.4 196.7 L137.2 196 L132.3 196.6 L129.7 195.3 L128.4 197.9 L127.5 198.1 L125.3 196.7 L128.1 199.1ZM108.8 181.9 L109.5 184.5 L111.8 190.1 L109.3 182.6 L108.8 181.9Z"/><path fill="#b0b572" d="M97.7 148.6 L40.4 148.6 L40.3 148.7 L48.3 151.7 L48.5 150.7 L50 150.1 L49.3 151.4 L49.8 152.4 L49.2 152.3 L52.9 155.5 L53.3 157.1 L52.2 156 L52.2 157 L53.3 158.1 L63.9 155.1 L64.7 153.1 L67.8 152.5 L71.7 154.9 L76.3 161.1 L82.3 166.3 L83.6 168.4 L83.5 173.7 L81.4 181.9 L82.6 183.7 L84.1 182.8 L84.2 181.6 L83.3 180.4 L86.4 181.7 L83.8 186 L82.9 186.4 L85.8 191.5 L112.2 191.5 L105.3 175 L104.2 170.1 L105.9 172.5 L105.9 175.5 L106.9 173.2 L106.8 177.6 L108.6 181.2 L107.1 176.4 L107.8 173.6 L101.2 161 L97.7 148.6ZM37.5 148.6 L32.9 148.6 L31.8 149.4 L34.5 149 L37.5 148.6ZM31.3 148.6 L24.4 148.6 L25.1 150.1 L22.7 150.9 L27.1 150.4 L29 148.7 L28.7 150 L30.9 149.4 L31.3 148.6ZM21.4 148.6 L13.6 148.6 L14.9 149.2 L21.4 148.6ZM-2.6 148.6 L4.7 151.7 L7.7 149.4 L11.9 148.6 L-2.6 148.6ZM-2.4 165.6 L-1.2 164.6 L-0.6 162.6 L-0.6 161.4 L-1.8 160 L1.4 161 L2.4 162.6 L6.3 164.5 L7.4 166.1 L7.1 167.2 L8.7 165.9 L9.6 166.8 L11.1 165.1 L11.2 164.3 L9.3 162.6 L5.5 161.5 L3.2 158.9 L5.3 156.9 L7.3 156.3 L6.8 153.3 L5.8 153.1 L4.2 155.2 L2.1 153.8 L3.8 152.4 L3 151.6 L0.1 153.1 L-2.6 153.3 L-2.4 165.6ZM108.8 181.9 L109.5 184.5 L111.8 190.1 L109.3 182.6 L108.8 181.9ZM55.6 158.7 L56.8 159.1 L59.9 157.4 L56.9 158.8 L55.6 158.7ZM12 158.4 L12.6 157.7 L12.8 157.1 L12.5 157.4 L12 158.4ZM13.3 156.4 L12.9 153.2 L13 156.8 L13.3 156.4ZM8.9 153.4 L8.8 152.8 L9.3 151.7 L7.5 153.1 L8.9 153.4ZM14.5 150.4 L15.3 150.9 L16.4 151.1 L16.2 150.9 L14.5 150.4ZM21.5 150.3 L19.2 150.7 L21.9 150.6 L21.5 150.3Z"/><path fill="#a8b371" d="M-2.6 148.9 L4.7 151.7 L7.7 149.4 L12.5 148.4 L14.9 149.2 L21.2 149.1 L22.6 144.8 L25.1 150.1 L22.7 150.9 L27.1 150.4 L29 148.7 L28.7 150 L30.9 149.4 L32.2 146.8 L33.3 147.3 L34.2 146.4 L34.3 148.2 L31.8 149.4 L42.6 147.4 L44.1 148.6 L40.3 148.7 L48.3 151.7 L48.5 150.7 L50 150.1 L49.3 151.4 L49.8 152.4 L49.2 152.3 L52.9 155.5 L53.3 157.1 L52.2 156 L52.2 157 L53.3 158.1 L63.9 155.1 L64.7 153.1 L67.8 152.5 L71.7 154.9 L74.9 159.2 L100.5 159.2 L96.5 143.3 L97.4 138 L98.2 138.4 L99.1 137.2 L98.1 136 L99 135.8 L100.4 133.6 L99.4 133.5 L100.5 132.6 L100.1 131.3 L101.6 130.2 L101.1 129 L103.3 128.1 L104.1 125.8 L105.9 124.5 L104.6 121.3 L105.7 122.8 L106.4 122 L107.2 123.5 L108.4 121.7 L106.6 120.5 L109.6 120.6 L113.5 119 L115 117.5 L114.5 116.4 L116 116.7 L118 115.2 L-2.6 115.2 L-2.6 148.9ZM3.3 159.2 L5.3 156.9 L7.3 156.3 L6.8 153.3 L5.8 153.1 L4.2 155.2 L2.1 153.8 L3.8 152.4 L3 151.6 L0.1 153.1 L-2.6 153.3 L-2.6 159.2 L3.3 159.2ZM55.6 158.7 L56.8 159.1 L59.9 157.4 L56.9 158.8 L55.6 158.7ZM12 158.4 L12.6 157.7 L12.8 157.1 L12.5 157.4 L12 158.4ZM13.3 156.4 L12.9 153.2 L13 156.8 L13.3 156.4ZM8.9 153.4 L8.8 152.8 L9.3 151.7 L7.5 153.1 L8.9 153.4ZM14.5 150.4 L15.3 150.9 L16.4 151.1 L16.2 150.9 L14.5 150.4ZM21.5 150.3 L19.2 150.7 L21.9 150.6 L21.5 150.3ZM97.1 144.3 L97.6 141.1 L96.9 142.1 L97.1 144.3Z"/><path fill="#9fb270" d="M158.4 80.8 L154.9 80.8 L157.3 81.5 L158.4 80.8ZM153.9 80.8 L153.7 80.8 L153.7 80.9 L153.9 80.8ZM104 126 L105.9 124.5 L104.6 121.3 L105.7 122.8 L106.4 122 L107.2 123.5 L108.4 121.7 L106.6 120.5 L109.6 120.6 L114.5 118.4 L114.5 116.4 L116 116.7 L118.2 115.1 L118.5 113.9 L122 112 L122.6 108.4 L123 110.6 L123.6 108.3 L127 104 L131.9 101.4 L136.4 101.4 L137.1 97.9 L137.4 101 L139.4 96.3 L143.6 93 L143.2 90.1 L144.5 91.9 L146.4 90.5 L150.9 90.5 L153.4 89.5 L155.2 87.3 L154.1 86.6 L149.1 86.8 L147.1 84.3 L150.4 86.6 L152.1 85.4 L153.5 82.7 L150.2 80.8 L-2.6 80.8 L-2.6 126 L104 126ZM152.2 90.7 L151.6 90.6 L153.1 91.2 L152.2 90.7ZM156.9 87.3 L154.3 89.8 L153.3 91.5 L153.6 91.4 L156.9 87.3ZM160.8 84 L159.5 84.7 L161.8 83.8 L160.8 84ZM164.9 82.5 L165.2 80.8 L164.6 82.5 L162.8 83.3 L164.9 82.5Z"/><path fill="#97b16f" d="M165.6 45.4 L162.9 45.4 L160.6 49.4 L159.3 54.5 L160 56.1 L161.4 52.2 L164 50.3 L165.6 45.4ZM156.2 45.4 L150.8 45.4 L154.3 48.7 L155.8 48 L156.2 45.4ZM143.2 92 L143.2 90.1 L144.5 91.9 L146.4 90.5 L150.9 90.5 L153.4 89.5 L155.2 87.3 L154.1 86.6 L150.8 87.2 L148.2 86.1 L147.1 84.3 L150.4 86.6 L152.1 85.4 L153.5 82.7 L147.5 79.1 L150.9 80.4 L152.7 79 L153.7 80.9 L157.3 81.5 L161.9 77.4 L161.4 73.1 L159.5 73.9 L159.3 76.3 L158.3 76.8 L158.5 72.9 L151 73 L150.9 69.2 L151.6 71.4 L152.9 72.2 L154.9 70.6 L156.7 70.8 L156.2 69.8 L157.6 70.4 L157.6 68.5 L161.3 70.9 L159.4 65.8 L159.9 63.1 L162.4 71 L164.6 75 L162 69.2 L159.3 59.5 L156.5 59 L153.7 59.8 L151.6 55.8 L145.1 53.6 L152.1 55.1 L154.7 58.4 L156.1 57.5 L155.6 56.2 L152.3 53.7 L150.7 51.1 L154.1 54.4 L154.8 54 L154.7 52.8 L156.3 53.2 L156.2 51.2 L155.1 50.7 L155.8 50.1 L153 48.7 L150.1 45.4 L-2.6 45.4 L-2.6 92 L143.2 92ZM152.2 90.7 L151.6 90.6 L153.1 91.2 L152.2 90.7ZM156.9 87.3 L154.3 89.8 L153.3 91.5 L153.6 91.4 L156.9 87.3ZM160.8 84 L159.5 84.7 L161.8 83.8 L160.8 84ZM164.9 82.5 L165.5 78.6 L164.9 75.7 L164.6 82.5 L162.8 83.3 L164.9 82.5ZM163.3 74.8 L163.3 73.7 L162.5 73.2 L163.3 74.8ZM166.9 45.6 L166.6 45.4 L166.4 45.8 L166.9 45.6Z"/><path fill="#95b06e" d="M151.9 56.9 L151.6 55.8 L145.1 53.6 L152.1 55.1 L153.1 56.9 L155.9 56.9 L152.3 53.7 L150.7 51.1 L154.1 54.4 L154.8 54 L154.7 52.8 L156.3 53.2 L156.2 51.2 L155.1 50.7 L155.8 50.1 L153 48.7 L146.6 41.5 L148.6 42.6 L153.7 48.5 L155.4 48.6 L156.3 45.5 L153 42.6 L149 41.1 L147.4 38.8 L145.3 39 L144.3 38.2 L144.9 35.2 L147.4 32.7 L147.6 31 L147.7 32.7 L145.4 36.1 L145.3 38 L147.9 37.5 L149.2 39.7 L149.4 38.3 L150.5 40.1 L154.1 41.4 L155.4 42.7 L154.6 40.1 L152 37.4 L151.7 36.2 L151.6 35.1 L152.8 37.6 L154.8 38.6 L153.6 36.2 L153.7 30.2 L152.9 28.5 L153.9 29 L154.4 27.6 L152.8 25.5 L154.5 26.1 L155.5 23.5 L156.1 24.7 L156.5 23 L156.8 23.8 L158.2 23 L158.6 21.2 L159.8 20.8 L159.6 22 L160.7 21.9 L159.3 23.4 L160.7 23.9 L158.4 24 L156.6 26.6 L156.8 28.5 L157.8 27.6 L157.8 28.2 L157.2 29.5 L155.7 29.3 L155.5 30.7 L156.5 30.2 L157.4 31.6 L155.9 32.1 L155.4 33.6 L156.1 32.7 L156.9 32.9 L159.1 34.9 L156.3 35.2 L156.3 37.6 L158.7 39.9 L160.9 38.7 L160.1 41.5 L161.6 42.7 L161 44.4 L163.2 44.6 L159.6 52.6 L159.3 54.5 L160 56.1 L161.4 52.2 L164 50.3 L166.6 43 L168.8 40.3 L169.3 38.1 L169.8 38.7 L170.2 37.8 L169.8 35.6 L168.5 35.4 L169.7 32.7 L168.6 32 L166.2 28 L166 25.3 L164.1 22.4 L164 20 L166.1 17.2 L168.7 16.2 L169.8 14.9 L168.9 16.6 L165.9 17.8 L164.7 22.2 L169.1 26.4 L171.8 27.3 L171.2 30.1 L173 29.4 L175.2 25.1 L177.2 23.7 L177.4 21.3 L178.3 21.5 L179.1 20.4 L181.3 14.8 L181.1 17.8 L182.4 8.7 L-2.6 8.7 L-2.6 56.9 L151.9 56.9ZM169.6 39.6 L168.1 42.9 L166.4 45.8 L168.4 42.9 L169.6 39.6ZM179.2 21.2 L179.2 21.6 L180.8 18.4 L179.2 21.2Z"/><path fill="#94b06e" d="M183.5 -1.1 L182.2 3.4 L186.8 -0.6 L190.6 -2.6 L183.4 -2.6 L183.5 -1.1ZM164 20.6 L166.1 17.2 L168.7 16.2 L169.8 14.9 L168.9 16.6 L165.9 17.8 L164.7 20.6 L179 20.6 L181.3 14.8 L181.1 17.8 L182.5 9.8 L182.1 7.9 L179.3 7.9 L179 6.8 L182.9 1 L182.9 -2.6 L-2.6 -2.6 L-2.6 20.6 L164 20.6ZM179.5 20.6 L179.8 20.6 L180.8 18.4 L179.5 20.6ZM179.9 5.5 L179.4 6.9 L181.1 5.9 L181.3 5 L179.9 5.5ZM201.6 -2.6 L197.7 -0.2 L186.9 0.9 L186 2.1 L185.5 1.7 L183.4 2.8 L181.7 5.1 L181.9 6 L183.5 4.9 L184.3 5.4 L183.2 6.2 L191.2 4.9 L205.9 -1.2 L203.6 -0.5 L202.7 -1 L198.2 0.9 L201.6 -2.6Z"/><path fill="#a88f73" d="M183.6 -1.6 L185.6 -2.6 L183.4 -2.6 L183.6 -1.6ZM119.5 0.9 L119.1 2.8 L114 7.8 L111.5 6.5 L110.5 4.2 L106.4 5.4 L106.9 9.9 L103.8 20.3 L99.6 23.6 L97.6 23.4 L94.9 25.3 L93.2 28.2 L92.7 30.7 L90.9 29.1 L89.2 31.9 L88.6 35.3 L86.2 37.7 L84.5 38.1 L83.2 36.2 L81.6 35.5 L80.8 33 L77.9 35 L74.1 33.8 L72.2 34.7 L69.9 32.9 L67.3 32.6 L64.1 28.7 L58.7 28.1 L58.9 31.9 L54.8 34 L53.2 33.1 L51.7 33.7 L52 36.1 L46.7 41 L46.4 43.4 L45.1 44.4 L42.6 43.1 L41.6 41.7 L38.7 45.3 L37.5 45.4 L36.2 44 L33.9 45.1 L33.1 46.7 L29 44.8 L27 46.4 L25.3 45.7 L21.2 48.3 L21.2 51.6 L17 53.4 L17.6 55.4 L16.8 57.4 L20 58.9 L22.9 68.2 L22.5 78 L21.6 80.6 L19.8 82.8 L19.7 91 L18 96.1 L18.1 98.7 L16.6 100.6 L17.9 108 L22.6 119.2 L35.5 118.6 L39.1 114.6 L46.8 113.8 L58 107 L69.5 101.9 L110 72.7 L122.5 59.2 L137.8 37 L144.2 26.1 L150.6 19 L157.1 13.4 L166.9 11.7 L170.2 7.6 L178.7 3.3 L183 -1.1 L182.9 -2.6 L117.4 -2.6 L119.5 0.9Z"/><path fill="#a8cbe6" d="M101.5 193.3 L105.3 196.6 L106.6 194.2 L106.3 192.1 L105.1 190.4 L101.5 193.3ZM94.6 160.4 L95.6 164.4 L96.4 164.1 L94.6 160.4ZM84.5 105.1 L88.9 104.4 L86.3 100.9 L84.3 100 L84.4 102.1 L85.4 101.6 L87.9 104 L84.5 105.1ZM30.5 89.7 L34.6 92.4 L35.3 92.3 L34.1 90.8 L29.8 88.5 L28 88.5 L26.2 89.6 L30.5 89.7ZM22.3 73.2 L23 73.2 L23.8 69.8 L22.1 63 L19.5 58 L21.8 64.6 L21.4 68.3 L21.7 68.8 L22.3 68.1 L22.9 69.1 L22.3 73.2Z"/><path fill="none" stroke="#a08a7c" stroke-width="0.6" d="M64.6 86.6 L65.3 82.9 L67.6 82.4 L69.7 79.2 L73.8 78.3 L79.8 75.2 L80.9 73.1 L83.1 72 L84.1 71.8 L84.7 72.8 L87.7 70.6 L90.4 70.7 L92.1 68.1 L94 67.4 L94.9 63.8M171.6 -2.6 L169.3 -0.3 L169.8 1.9 L168.7 3.1 L168.5 5.8 L173.7 12.4 L169.8 14.9M84.3 37.9 L84.2 37.7M84.1 37.5 L84.3 37.9M91.4 50.6 L87.8 48.5 L84.3 42.5 L84.3 37.9M91.4 50.6 L83.3 56.3 L80.8 59.6 L77.9 61.7 L72 63.9M3 140.7 L2 145.9 L5.5 151.4M165.9 17.4 L163.4 17 L161.7 18.8M101.4 84.3 L101.9 85.5M82.2 85.2 L87 83.6M-2.6 65.4 L-1.8 65.4 L-0.8 67.7 L-2.6 70.1M-2.6 72.5 L3.4 72.4M107.9 5 L107.9 -2.6M119.7 18.8 L107.9 18.8 L107.9 5M-2.6 86.4 L20.8 86.4M56.8 140.7 L27.4 140.7 L27.3 142.6 L29.5 145.5 L28.6 148.9M64.6 86.6 L49.8 86.4M78.3 86.4 L64.6 86.6M82.2 85.2 L78.5 86.4M78.5 86.4 L78.3 86.4M101.9 85.5 L103.2 84.8 L104.8 86.9 L104.9 88.8 L117.7 89.2 L130.1 101.9M87 83.6 L101.4 84.3M91.4 50.6 L92.4 53.6 L95.7 55.3 L98.4 53.5 L100.4 54.5 L103.4 53.8 L104.2 52.3 L109.6 51.5 L111 49.4 L111 47.5 L114.1 43.3 L117.9 35.6 L120.7 37.4 L122.4 37 L124.7 32.5 L126.6 32.1 L129.9 29.4 L131.6 27 L132.9 22.8 L138.4 27.3 L139.6 24.3M119.7 18.8 L161.7 18.8M119.7 18.8 L119.6 26.3M161.7 18.8 L162.6 37.4 L170.2 37.3M163.2 44.6 L163.6 44 L168.1 43.4M147.7 32.2 L148.7 31 L147.4 29.2 L146.5 30.2M186.3 -2.6 L185.2 -1.9 L186.2 -0.2M179.2 -2.6 L183.1 -0.2M58.9 28.1 L59.1 -2.6M-2.6 140.7 L3 140.7M5.8 65.3 L5 65.4M3.4 72.4 L3.5 73.6 L0.6 76.9 L0.8 78.2 L-1.2 82 L-1.1 83.6 L-2.6 85.5M5 65.4 L3.4 72.4M5.8 65.3 L5.3 64.6 L5 65.4M6.3 65.4 L5.8 65.3M9.6 58.4 L9.9 61 L9.1 63.6 L6.9 64.1 L6.3 65.4M-2.6 30.9 L-1.4 31.9 L-2.6 34.7M-2.6 42.3 L5.4 49.1 L5.8 55.3 L7.4 57.8 L8.1 58.1 L8.3 57.1 L9.6 58.4M22.3 47 L21.3 48.3 L21.5 50.6 L17.1 53.1 L17.4 57 L10.9 55.7 L9.6 58.4M58.9 28.1 L58.4 30.4 L59.2 32 L55 33.9 L52.3 33.4 L51.7 36.3 L47.9 39.8 L45.3 44.2 L43.1 43.4 L41.4 41.4 L38.7 45.8 L35.6 44.3 L32.5 46.8 L29.9 45 L27.5 44.6 L26.8 46.4 L26 45.4 L24.2 45.2 L23.5 46.9 L22.3 47M84.1 37.5 L81 33.6 L77.3 34.7 L75.6 34.8 L73.5 33.8 L71.8 34.5 L65.7 31.4 L63.4 28.1 L60.2 27.5 L58.9 28.1M107.9 5 L106.3 6.3 L106.9 9.2 L103.8 19.6 L99.4 23.7 L97.4 23.6 L94.9 25.4 L93.3 28.1 L93.5 30.2 L92.2 31 L91 29.2 L90.2 29.9 L88.7 32.8 L89 34.7 L87.4 37 L85.4 37.9 L84.1 37.5M22.3 47 L21.7 45.7 L23.2 41.9 L23 40.3 L26.4 36.9 L28.2 32.2 L26.8 26.9 L28.1 23.9 L28.2 -2.6M20.8 86.4 L21.8 87.3 L17.2 128.8 L18.2 149M49.8 86.4 L20.8 86.4M72 63.9 L24.6 63.3 L21.7 62.7 L22.1 65.4 L6.3 65.4M94.9 63.8 L72 63.9M160.9 64.7 L94.9 63.8M56.8 140.7 L58.2 144.4 L88.3 146.5 L88.8 148.7 L89.7 149 L90.7 147.6 L90.6 144.3 L91.5 143.2 L96.7 144.3M56.8 140.7 L55.8 136.8 L56.3 133.1 L55.5 129 L57.8 123.5 L54.6 114.5 L49.8 86.4M78.3 86.4 L75.6 90.5 L81.4 94.2 L84.3 100 L91 106.8 L93.5 111.2 L95.8 112.9 L98.1 119.2 L100.4 122.2 L100.9 124.9 L103.9 127M146.5 30.2 L147.6 31 L147.7 32.2M139.6 24.3 L142.5 26.2 L142.4 27.8 L146.5 30.2M119.6 26.3 L124.3 22.4 L125.5 22.7 L127.7 20.2 L128.8 21.3 L130.9 21.6 L131.9 20.2 L134.5 19.3 L138.2 20.6 L139.6 24.3"/></svg>
