<?xml version="1.0" encoding="UTF-8" standalone="no"?>
<!-- Created with Inkscape (http://www.inkscape.org/) -->

<svg
   width="240mm"
   height="240mm"
   viewBox="0 0 240 240"
   version="1.1"
   id="svg5"
   inkscape:version="1.2.2 (732a01da63, 2022-12-09)"
   sodipodi:docname="icon_here.svg"
   inkscape:export-filename="icon_here.png"
   inkscape:export-xdpi="13.546667"
   inkscape:export-ydpi="13.546667"
   xmlns:inkscape="http://www.inkscape.org/namespaces/inkscape"
   xmlns:sodipodi="http://sodipodi.sourceforge.net/DTD/sodipodi-0.dtd"
   xmlns="http://www.w3.org/2000/svg"
   xmlns:svg="http://www.w3.org/2000/svg">
  <sodipodi:namedview
     id="namedview7"
     pagecolor="#ffffff"
     bordercolor="#000000"
     borderopacity="0.25"
     inkscape:showpageshadow="2"
     inkscape:pageopacity="0.0"
     inkscape:pagecheckerboard="true"
     inkscape:deskcolor="#d1d1d1"
     inkscape:document-units="mm"
     showgrid="false"
     inkscape:zoom="0.74642639"
     inkscape:cx="261.24478"
     inkscape:cy="464.88174"
     inkscape:window-width="1920"
     inkscape:window-height="986"
     inkscape:window-x="-11"
     inkscape:window-y="-11"
     inkscape:window-maximized="1"
     inkscape:current-layer="layer1" />
  <defs
     id="defs2" />
  <g
     inkscape:label="Level 1"
     inkscape:groupmode="layer"
     id="layer1">
    <circle
       style="fill:#ffffff;stroke-width:0;image-rendering:auto"
       id="outer_circle"
       cx="120"
       cy="120"
       r="120" />
    <path
       style="fill:#000000;fill-opacity:1;stroke:#000000;stroke-width:5.93406;stroke-opacity:1"
       d="M 190,110 C 190,75 165,50 130,50 V 30 H 110 V 50 C 75,50 50,80 50,110 H 30 v 20 h 20 c 0,30 30,60 60,60 v 20 h 20 v -20 c 35,0 60,-30 60,-60 h 20 v -20 z m -70,60 c -30,0 -50,-20 -50,-50 0,-30 20,-50 50,-50 30,0 50,20 50,50 0,30 -20,50 -50,50 z"
       id="here_symbol"
       sodipodi:nodetypes="ccaacccccccccccccccccc" />
  </g>
</svg>
