<?xml version="1.0" encoding="UTF-8" standalone="no"?>
<!-- Created with Inkscape (http://www.inkscape.org/) -->

<svg
   width="240mm"
   height="240mm"
   viewBox="0 0 240 240"
   version="1.1"
   id="svg1117"
   inkscape:version="1.2.2 (732a01da63, 2022-12-09)"
   sodipodi:docname="icon_map.svg"
   inkscape:export-filename="icon_map.png"
   inkscape:export-xdpi="96"
   inkscape:export-ydpi="96"
   xmlns:inkscape="http://www.inkscape.org/namespaces/inkscape"
   xmlns:sodipodi="http://sodipodi.sourceforge.net/DTD/sodipodi-0.dtd"
   xmlns="http://www.w3.org/2000/svg"
   xmlns:svg="http://www.w3.org/2000/svg">
  <sodipodi:namedview
     id="namedview1119"
     pagecolor="#ffffff"
     bordercolor="#b0b0b0"
     borderopacity="0.31764706"
     inkscape:showpageshadow="2"
     inkscape:pageopacity="0.0"
     inkscape:pagecheckerboard="true"
     inkscape:deskcolor="#d1d1d1"
     inkscape:document-units="mm"
     showgrid="false"
     inkscape:zoom="0.70199214"
     inkscape:cx="668.8109"
     inkscape:cy="289.17703"
     inkscape:window-width="1920"
     inkscape:window-height="986"
     inkscape:window-x="-11"
     inkscape:window-y="-11"
     inkscape:window-maximized="1"
     inkscape:current-layer="layer1" />
  <defs
     id="defs1114">
    <inkscape:perspective
       sodipodi:type="inkscape:persp3d"
       inkscape:vp_x="0 : 120 : 1"
       inkscape:vp_y="0 : 1000 : 0"
       inkscape:vp_z="240 : 120 : 1"
       inkscape:persp3d-origin="120 : 80 : 1"
       id="perspective1722" />
  </defs>
  <g
     inkscape:label="Level 1"
     inkscape:groupmode="layer"
     id="layer1">
    <circle
       style="fill:#ffffff;stroke:#000000;stroke-width:0;stroke-dasharray:none"
       id="path1294"
       cx="120"
       cy="120"
       r="120" />
    <path
       style="fill:#ffffff;stroke:#000000;stroke-width:10;stroke-dasharray:none"
       d="m 30,70 45,-20 45,20 45,-20 45,20 v 100 l -45,-20 -45,20 -45,-20 -45,20 z"
       id="path1985"
       sodipodi:nodetypes="ccccccccccc" />
    <path
       style="fill:#ffffff;stroke:#000000;stroke-width:5;stroke-dasharray:none"
       d="M 75,50 V 150"
       id="path2001"
       sodipodi:nodetypes="cc" />
    <path
       style="fill:#ffffff;stroke:#000000;stroke-width:5;stroke-dasharray:none"
       d="M 120,70 V 170"
       id="path2001-9"
       sodipodi:nodetypes="cc" />
    <path
       style="fill:#ffffff;stroke:#000000;stroke-width:5;stroke-dasharray:none"
       d="M 165,50 V 150"
       id="path2001-8"
       sodipodi:nodetypes="cc" />
    <path
       style="fill:#ffffff;fill-opacity:0;stroke:#000000;stroke-width:3;stroke-dasharray:9, 6;stroke-dashoffset:0"
       d="m 35.805837,145.86167 c 3.140864,0.37691 6.343263,1.85516 9.422588,1.13071 10.424308,-2.45246 15.681548,-5.79428 16.583757,-6.40736 8.156489,-5.54259 15.788662,-4.64045 23.368019,-9.04568 4.283672,-2.48973 9.147081,-3.2843 12.814723,-5.27665 2.771346,-1.50546 5.005896,-1.44979 7.161166,-2.63833 11.10168,-3.23761 15.49109,-5.08225 23.74492,-5.08819 10.62672,5.68331 23.55319,6.06067 32.79061,9.23413 4.10011,1.96014 9.22702,2.93032 12.81473,4.89975 2.43563,1.33701 4.38326,2.24088 6.40736,3.01523 0.67333,0.28857 1.21736,0.82811 1.88451,1.13071 3.37137,1.52913 6.94184,3.49973 9.7995,5.65355 2.51812,0.93449 4.88559,2.07163 7.16116,3.01523 0.93035,0.38579 2.40514,2.14483 3.39214,2.63833 1.71336,1.45154 4.10885,2.95922 4.14593,3.39213"
       id="path2111"
       sodipodi:nodetypes="csssscccscscscc" />
    <path
       style="fill:#ffffff;fill-opacity:0;stroke:#000000;stroke-width:3;stroke-dasharray:9, 6;stroke-dashoffset:0"
       d="m 208.15202,97.95606 -21.1066,2.07297 c -1.86657,0.18332 -11.63686,-3.455236 -13.66979,-3.164819 -2.69028,0.384326 -5.02421,1.800373 -7.53807,2.638325 -3.59694,1.198984 -7.50742,2.057644 -10.9302,3.769034 -2.20572,2.17025 -4.85478,1.195 -7.04229,3.34837 -3.00684,1.98169 -4.12694,3.67784 -8.41076,4.94351 -1.98279,1.07516 -3.24754,1.44291 -4.73513,2.63832 -2.42136,1.98682 -4.36883,3.7034 -6.09611,7.6457"
       id="path2200"
       sodipodi:nodetypes="csssccccc" />
  </g>
</svg>
